<?xml version="1.0" encoding="UTF-8"?>
<svg xmlns="http://www.w3.org/2000/svg" xmlns:xlink="http://www.w3.org/1999/xlink" width="37.5pt" height="37.499999pt" viewBox="0 0 37.5 37.499999" version="1.2">
<defs>
<clipPath id="clip1">
  <path d="M 0.863281 0.863281 L 36.863281 0.863281 L 36.863281 36.863281 L 0.863281 36.863281 Z M 0.863281 0.863281 "/>
</clipPath>
</defs>
<g id="surface1">
<g clip-path="url(#clip1)" clip-rule="nonzero">
<path style=" stroke:none;fill-rule:nonzero;fill:rgb(29.019165%,73.728943%,58.81958%);fill-opacity:1;" d="M 0.863281 18.980469 C 0.863281 8.976562 8.976562 0.863281 18.980469 0.863281 C 28.984375 0.863281 37.097656 8.976562 37.097656 18.980469 C 37.097656 28.984375 28.984375 37.097656 18.980469 37.097656 C 8.976562 37.097656 0.863281 28.984375 0.863281 18.980469 Z M 0.863281 18.980469 "/>
</g>
<path style=" stroke:none;fill-rule:nonzero;fill:rgb(100%,100%,100%);fill-opacity:1;" d="M 28.800781 29.191406 L 12.40625 31.8125 L 8.792969 9.152344 L 25.179688 6.53125 Z M 28.800781 29.191406 "/>
<path style=" stroke:none;fill-rule:nonzero;fill:rgb(96.859741%,85.099792%,54.508972%);fill-opacity:1;" d="M 27.832031 12.40625 L 26.386719 12.101562 L 26.355469 12.234375 L 27.808594 12.53125 Z M 27.832031 12.40625 "/>
<path style=" stroke:none;fill-rule:nonzero;fill:rgb(96.859741%,85.099792%,54.508972%);fill-opacity:1;" d="M 27.554688 9.882812 L 26.386719 12.101562 L 27.832031 12.40625 Z M 27.554688 9.882812 "/>
<path style=" stroke:none;fill-rule:nonzero;fill:rgb(38.42926%,39.219666%,38.819885%);fill-opacity:1;" d="M 27.554688 9.867188 L 27.042969 10.839844 L 27.679688 10.96875 Z M 27.554688 9.867188 "/>
<path style=" stroke:none;fill-rule:nonzero;fill:rgb(94.898987%,74.508667%,24.308777%);fill-opacity:1;" d="M 23.851562 31.453125 C 23.785156 31.753906 23.542969 31.710938 23.238281 31.652344 L 22.886719 31.578125 C 22.589844 31.511719 22.339844 31.453125 22.40625 31.152344 L 22.457031 30.914062 C 22.523438 30.613281 23.960938 30.914062 23.902344 31.210938 Z M 23.851562 31.453125 "/>
<path style=" stroke:none;fill-rule:nonzero;fill:rgb(50.588989%,50.979614%,50.979614%);fill-opacity:1;" d="M 24.105469 30.242188 L 22.660156 29.941406 L 22.457031 30.90625 L 23.910156 31.210938 Z M 24.105469 30.242188 "/>
<path style=" stroke:none;fill-rule:nonzero;fill:rgb(64.309692%,64.709473%,64.309692%);fill-opacity:1;" d="M 24.105469 30.242188 L 22.660156 29.941406 L 22.625 30.085938 L 24.078125 30.394531 Z M 24.105469 30.242188 "/>
<path style=" stroke:none;fill-rule:nonzero;fill:rgb(64.309692%,64.709473%,64.309692%);fill-opacity:1;" d="M 22.589844 30.265625 L 24.039062 30.570312 L 24.007812 30.71875 L 22.558594 30.417969 Z M 22.589844 30.265625 "/>
<path style=" stroke:none;fill-rule:nonzero;fill:rgb(64.309692%,64.709473%,64.309692%);fill-opacity:1;" d="M 22.527344 30.597656 L 23.976562 30.898438 L 23.945312 31.050781 L 22.496094 30.746094 Z M 22.527344 30.597656 "/>
<path style=" stroke:none;fill-rule:nonzero;fill:rgb(90.979004%,28.239441%,28.62854%);fill-opacity:1;" d="M 27.503906 12.453125 L 23.792969 30.210938 L 24.105469 30.277344 L 27.816406 12.515625 L 27.765625 12.261719 Z M 27.503906 12.453125 "/>
<path style=" stroke:none;fill-rule:nonzero;fill:rgb(90.979004%,28.239441%,28.62854%);fill-opacity:1;" d="M 26.589844 12.261719 L 22.878906 30.023438 L 23.304688 30.109375 L 27.011719 12.351562 L 26.84375 12.066406 Z M 26.589844 12.261719 "/>
<path style=" stroke:none;fill-rule:nonzero;fill:rgb(94.119263%,39.99939%,40.779114%);fill-opacity:1;" d="M 26.347656 12.21875 L 22.644531 29.972656 L 22.878906 30.023438 L 26.589844 12.261719 L 26.464844 11.992188 Z M 26.347656 12.21875 "/>
<path style=" stroke:none;fill-rule:nonzero;fill:rgb(94.119263%,39.99939%,40.779114%);fill-opacity:1;" d="M 27.011719 12.351562 L 23.304688 30.109375 L 23.792969 30.210938 L 27.503906 12.453125 L 27.304688 12.167969 Z M 27.011719 12.351562 "/>
<path style=" stroke:none;fill-rule:nonzero;fill:rgb(20.779419%,44.309998%,50.19989%);fill-opacity:1;" d="M 24.054688 9.882812 L 10.683594 12.015625 L 10.554688 11.167969 L 23.917969 9.035156 Z M 24.054688 9.882812 "/>
<path style=" stroke:none;fill-rule:nonzero;fill:rgb(20.779419%,44.309998%,50.19989%);fill-opacity:1;" d="M 24.441406 11.992188 L 11.070312 14.125 L 10.941406 13.285156 L 24.304688 11.144531 Z M 24.441406 11.992188 "/>
<path style=" stroke:none;fill-rule:nonzero;fill:rgb(20.779419%,44.309998%,50.19989%);fill-opacity:1;" d="M 24.792969 14.242188 L 11.429688 16.375 L 11.289062 15.527344 L 24.660156 13.394531 Z M 24.792969 14.242188 "/>
<path style=" stroke:none;fill-rule:nonzero;fill:rgb(20.779419%,44.309998%,50.19989%);fill-opacity:1;" d="M 11.644531 17.703125 L 19.011719 16.527344 L 19.148438 17.371094 L 11.777344 18.546875 Z M 11.644531 17.703125 "/>
</g>
</svg>
