<?xml version="1.0" encoding="UTF-8"?>
<svg xmlns="http://www.w3.org/2000/svg" xmlns:xlink="http://www.w3.org/1999/xlink" width="300pt" height="149.999998pt" viewBox="0 0 300 149.999998" version="1.2">
<defs>
<clipPath id="clip1">
  <path d="M 28.789062 0 L 270.875 0 L 270.875 150 L 28.789062 150 Z M 28.789062 0 "/>
</clipPath>
</defs>
<g id="surface1">
<g clip-path="url(#clip1)" clip-rule="nonzero">
<path style=" stroke:none;fill-rule:evenodd;fill:rgb(100%,100%,100%);fill-opacity:1;" d="M 28.789062 0.0664062 L 270.878906 0.0664062 L 270.878906 149.945312 L 28.789062 149.945312 Z M 188.027344 119.414062 L 193.261719 122.960938 L 203.269531 108.003906 L 197.730469 104.457031 Z M 205.734375 109.695312 L 196.03125 124.503906 L 201.269531 128.199219 L 210.972656 113.246094 Z M 199.730469 101.527344 L 204.964844 105.226562 L 214.511719 90.734375 L 209.277344 87.03125 Z M 230.683594 101.21875 L 225.449219 97.980469 L 215.746094 112.472656 L 220.980469 116.175781 Z M 217.441406 92.273438 L 207.277344 107.230469 L 212.972656 110.933594 L 222.984375 95.976562 Z M 218.980469 118.949219 L 213.742188 115.25 L 204.195312 129.742188 L 209.277344 133.445312 Z M 97.164062 12.097656 L 91.46875 8.546875 L 70.214844 40.773438 L 75.757812 44.324219 Z M 83.765625 49.5625 L 105.171875 17.339844 L 99.9375 13.792969 L 78.222656 46.019531 Z M 107.636719 19.34375 L 86.230469 51.261719 L 91.46875 54.804688 L 112.871094 22.578125 Z M 75.757812 97.980469 L 70.214844 101.21875 L 91.46875 133.445312 L 97.164062 129.742188 Z M 88.230469 110.933594 L 93.46875 107.230469 L 83.765625 92.273438 L 78.222656 95.976562 Z M 86.230469 90.734375 L 107.636719 122.960938 L 112.871094 119.414062 L 91.46875 87.03125 Z M 95.160156 109.695312 L 89.925781 113.246094 L 99.9375 128.199219 L 105.171875 124.503906 Z M 118.109375 50.488281 L 117.648438 50.796875 L 117.261719 51.488281 L 117.1875 51.570312 C 115.027344 55.371094 113.589844 59.429688 112.871094 63.75 C 111.742188 68.582031 111.742188 73.566406 112.871094 78.703125 C 113.589844 83.539062 115.441406 88.058594 118.417969 92.273438 C 121.085938 96.589844 124.578125 100.242188 128.886719 103.222656 C 133.40625 106.203125 138.230469 108.105469 143.367188 108.925781 C 148.191406 109.957031 153.015625 109.957031 157.839844 108.925781 C 162.972656 108.105469 167.695312 106.203125 172.007812 103.222656 C 176.21875 100.242188 179.65625 96.589844 182.328125 92.273438 L 183.25 91.503906 C 185.917969 87.496094 187.667969 83.074219 188.488281 78.242188 C 189.207031 73.101562 189.207031 68.121094 188.488281 63.285156 C 187.359375 58.457031 185.460938 53.882812 182.789062 49.5625 C 179.8125 45.246094 176.21875 41.648438 172.007812 38.769531 C 167.695312 36.097656 162.972656 34.195312 157.839844 33.066406 C 153.015625 32.039062 148.035156 32.039062 142.902344 33.066406 C 137.871094 34.195312 133.355469 36.097656 129.351562 38.769531 C 125.039062 41.648438 121.394531 45.246094 118.417969 49.5625 C 118.210938 49.871094 118.109375 50.179688 118.109375 50.488281 Z M 204.964844 36.765625 L 199.730469 40.3125 L 209.277344 54.804688 L 214.511719 51.261719 Z M 201.269531 13.792969 L 196.03125 17.339844 L 217.441406 49.5625 L 222.984375 46.019531 Z M 197.730469 37.539062 L 203.269531 33.835938 L 193.261719 19.34375 L 188.027344 22.578125 Z M 213.742188 26.589844 L 218.980469 23.042969 L 209.277344 8.546875 L 204.195312 12.097656 Z M 220.980469 25.820312 L 215.746094 29.519531 L 225.449219 44.324219 L 230.683594 40.773438 L 220.980469 25.820312 "/>
</g>
<path style=" stroke:none;fill-rule:evenodd;fill:rgb(6.269836%,5.879211%,5.099487%);fill-opacity:1;" d="M 95.160156 109.695312 L 105.171875 124.503906 L 99.9375 128.199219 L 89.925781 113.246094 Z M 86.230469 90.734375 L 91.46875 87.03125 L 112.871094 119.414062 L 107.636719 122.960938 Z M 88.230469 110.933594 L 78.222656 95.976562 L 83.765625 92.273438 L 93.46875 107.230469 Z M 75.757812 97.980469 L 97.164062 129.742188 L 91.46875 133.445312 L 70.214844 101.21875 Z M 107.636719 19.34375 L 112.871094 22.578125 L 91.46875 54.804688 L 86.230469 51.261719 Z M 83.765625 49.5625 L 78.222656 46.019531 L 99.9375 13.792969 L 105.171875 17.339844 Z M 97.164062 12.097656 L 75.757812 44.324219 L 70.214844 40.773438 L 91.46875 8.546875 Z M 218.980469 118.949219 L 209.277344 133.445312 L 204.195312 129.742188 L 213.742188 115.25 Z M 217.441406 92.273438 L 222.984375 95.976562 L 212.972656 110.933594 L 207.277344 107.230469 Z M 230.683594 101.21875 L 220.980469 116.175781 L 215.746094 112.472656 L 225.449219 97.980469 Z M 199.730469 101.527344 L 209.277344 87.03125 L 214.511719 90.734375 L 204.964844 105.226562 Z M 205.734375 109.695312 L 210.972656 113.246094 L 201.269531 128.199219 L 196.03125 124.503906 Z M 188.027344 119.414062 L 197.730469 104.457031 L 203.269531 108.003906 L 193.261719 122.960938 Z M 220.980469 25.820312 L 230.683594 40.773438 L 225.449219 44.324219 L 215.746094 29.519531 Z M 213.742188 26.589844 L 204.195312 12.097656 L 209.277344 8.546875 L 218.980469 23.042969 Z M 197.730469 37.539062 L 188.027344 22.578125 L 193.261719 19.34375 L 203.269531 33.835938 Z M 201.269531 13.792969 L 222.984375 46.019531 L 217.441406 49.5625 L 196.03125 17.339844 Z M 204.964844 36.765625 L 214.511719 51.261719 L 209.277344 54.804688 L 199.730469 40.3125 L 204.964844 36.765625 "/>
<path style=" stroke:none;fill-rule:evenodd;fill:rgb(74.119568%,10.198975%,20.388794%);fill-opacity:1;" d="M 183.25 91.503906 C 184.277344 89.652344 185.046875 87.648438 185.5625 85.488281 C 185.871094 83.023438 185.769531 80.457031 185.253906 77.78125 C 184.945312 75.417969 184.121094 73.15625 182.789062 70.996094 C 181.148438 68.835938 179.296875 67.089844 177.246094 65.753906 C 175.089844 64.109375 172.625 63.183594 169.851562 62.980469 C 167.492188 62.363281 165.078125 62.363281 162.617188 62.980469 C 160.253906 63.183594 157.996094 64.109375 155.839844 65.753906 C 153.683594 67.089844 151.9375 68.835938 150.601562 70.996094 C 148.960938 73.15625 147.113281 74.902344 145.058594 76.238281 C 142.902344 77.882812 140.59375 78.808594 138.128906 79.015625 C 135.769531 79.527344 133.355469 79.527344 130.890625 79.015625 C 128.222656 78.808594 125.808594 77.882812 123.652344 76.238281 C 121.496094 74.902344 119.75 73.15625 118.417969 70.996094 C 116.773438 68.835938 115.851562 66.523438 115.644531 64.058594 C 115.128906 61.386719 115.128906 58.972656 115.644531 56.8125 C 115.851562 54.957031 116.363281 53.210938 117.1875 51.570312 L 117.261719 51.488281 C 117.53125 51.027344 117.8125 50.695312 118.109375 50.488281 C 118.109375 50.179688 118.210938 49.871094 118.417969 49.5625 C 121.394531 45.246094 125.039062 41.648438 129.351562 38.769531 C 133.355469 36.097656 137.871094 34.195312 142.902344 33.066406 C 148.035156 32.039062 153.015625 32.039062 157.839844 33.066406 C 162.972656 34.195312 167.695312 36.097656 172.007812 38.769531 C 176.21875 41.648438 179.8125 45.246094 182.789062 49.5625 C 185.460938 53.882812 187.359375 58.457031 188.488281 63.285156 C 189.207031 68.121094 189.207031 73.101562 188.488281 78.242188 C 187.667969 83.074219 185.917969 87.496094 183.25 91.503906 "/>
<path style=" stroke:none;fill-rule:evenodd;fill:rgb(16.079712%,19.60907%,45.878601%);fill-opacity:1;" d="M 117.261719 51.488281 L 117.648438 50.796875 L 118.109375 50.488281 C 117.8125 50.695312 117.53125 51.027344 117.261719 51.488281 Z M 117.1875 51.570312 C 116.363281 53.210938 115.851562 54.957031 115.644531 56.8125 C 115.128906 58.972656 115.128906 61.386719 115.644531 64.058594 C 115.851562 66.523438 116.773438 68.835938 118.417969 70.996094 C 119.75 73.15625 121.496094 74.902344 123.652344 76.238281 C 125.808594 77.882812 128.222656 78.808594 130.890625 79.015625 C 133.355469 79.527344 135.769531 79.527344 138.128906 79.015625 C 140.59375 78.808594 142.902344 77.882812 145.058594 76.238281 C 147.113281 74.902344 148.960938 73.15625 150.601562 70.996094 C 151.9375 68.835938 153.683594 67.089844 155.839844 65.753906 C 157.996094 64.109375 160.253906 63.183594 162.617188 62.980469 C 165.078125 62.363281 167.492188 62.363281 169.851562 62.980469 C 172.625 63.183594 175.089844 64.109375 177.246094 65.753906 C 179.296875 67.089844 181.148438 68.835938 182.789062 70.996094 C 184.121094 73.15625 184.945312 75.417969 185.253906 77.78125 C 185.769531 80.457031 185.871094 83.023438 185.5625 85.488281 C 185.046875 87.648438 184.277344 89.652344 183.25 91.503906 L 182.328125 92.273438 C 179.65625 96.589844 176.21875 100.242188 172.007812 103.222656 C 167.695312 106.203125 162.972656 108.105469 157.839844 108.925781 C 153.015625 109.957031 148.191406 109.957031 143.367188 108.925781 C 138.230469 108.105469 133.40625 106.203125 128.886719 103.222656 C 124.578125 100.242188 121.085938 96.589844 118.417969 92.273438 C 115.441406 88.058594 113.589844 83.539062 112.871094 78.703125 C 111.742188 73.566406 111.742188 68.582031 112.871094 63.75 C 113.589844 59.429688 115.027344 55.371094 117.1875 51.570312 "/>
</g>
</svg>
