<?xml version="1.0" encoding="UTF-8"?>
<svg xmlns="http://www.w3.org/2000/svg" xmlns:xlink="http://www.w3.org/1999/xlink" width="300pt" height="149.999998pt" viewBox="0 0 300 149.999998" version="1.2">
<g id="surface1">
<path style=" stroke:none;fill-rule:nonzero;fill:rgb(79.60968%,0%,10.978699%);fill-opacity:1;" d="M 21.671875 138.3125 L 278.449219 138.3125 L 278.449219 149.832031 L 21.671875 149.832031 Z M 21.671875 138.3125 "/>
<path style=" stroke:none;fill-rule:nonzero;fill:rgb(100%,100%,100%);fill-opacity:1;" d="M 21.671875 126.789062 L 278.449219 126.789062 L 278.449219 138.3125 L 21.671875 138.3125 Z M 21.671875 126.789062 "/>
<path style=" stroke:none;fill-rule:nonzero;fill:rgb(79.60968%,0%,10.978699%);fill-opacity:1;" d="M 21.671875 115.265625 L 278.449219 115.265625 L 278.449219 126.789062 L 21.671875 126.789062 Z M 21.671875 115.265625 "/>
<path style=" stroke:none;fill-rule:nonzero;fill:rgb(100%,100%,100%);fill-opacity:1;" d="M 21.671875 103.730469 L 278.449219 103.730469 L 278.449219 115.265625 L 21.671875 115.265625 Z M 21.671875 103.730469 "/>
<path style=" stroke:none;fill-rule:nonzero;fill:rgb(79.60968%,0%,10.978699%);fill-opacity:1;" d="M 21.671875 92.210938 L 278.449219 92.210938 L 278.449219 103.730469 L 21.671875 103.730469 Z M 21.671875 92.210938 "/>
<path style=" stroke:none;fill-rule:nonzero;fill:rgb(100%,100%,100%);fill-opacity:1;" d="M 21.671875 80.691406 L 278.449219 80.691406 L 278.449219 92.210938 L 21.671875 92.210938 Z M 21.671875 80.691406 "/>
<path style=" stroke:none;fill-rule:nonzero;fill:rgb(79.60968%,0%,10.978699%);fill-opacity:1;" d="M 21.671875 69.164062 L 278.449219 69.164062 L 278.449219 80.691406 L 21.671875 80.691406 Z M 21.671875 69.164062 "/>
<path style=" stroke:none;fill-rule:nonzero;fill:rgb(100%,100%,100%);fill-opacity:1;" d="M 21.671875 57.632812 L 278.449219 57.632812 L 278.449219 69.15625 L 21.671875 69.15625 Z M 21.671875 57.632812 "/>
<path style=" stroke:none;fill-rule:nonzero;fill:rgb(79.60968%,0%,10.978699%);fill-opacity:1;" d="M 21.671875 46.105469 L 278.449219 46.105469 L 278.449219 57.632812 L 21.671875 57.632812 Z M 21.671875 46.105469 "/>
<path style=" stroke:none;fill-rule:nonzero;fill:rgb(100%,100%,100%);fill-opacity:1;" d="M 21.671875 34.574219 L 278.449219 34.574219 L 278.449219 46.101562 L 21.671875 46.101562 Z M 21.671875 34.574219 "/>
<path style=" stroke:none;fill-rule:nonzero;fill:rgb(79.60968%,0%,10.978699%);fill-opacity:1;" d="M 21.671875 23.058594 L 278.449219 23.058594 L 278.449219 34.574219 L 21.671875 34.574219 Z M 21.671875 23.058594 "/>
<path style=" stroke:none;fill-rule:nonzero;fill:rgb(100%,100%,100%);fill-opacity:1;" d="M 21.671875 11.527344 L 278.449219 11.527344 L 278.449219 23.054688 L 21.671875 23.054688 Z M 21.671875 11.527344 "/>
<path style=" stroke:none;fill-rule:nonzero;fill:rgb(79.60968%,0%,10.978699%);fill-opacity:1;" d="M 21.671875 0 L 278.449219 0 L 278.449219 11.527344 L 21.671875 11.527344 Z M 21.671875 0 "/>
<path style=" stroke:none;fill-rule:nonzero;fill:rgb(16.468811%,20.779419%,37.649536%);fill-opacity:1;" d="M 21.671875 0 L 138.90625 0 L 138.90625 80.691406 L 21.671875 80.691406 Z M 21.671875 0 "/>
<path style=" stroke:none;fill-rule:nonzero;fill:rgb(100%,100%,100%);fill-opacity:1;" d="M 32.25 8.890625 L 33.238281 11.945312 L 36.4375 11.945312 L 33.851562 13.824219 L 34.839844 16.878906 L 32.25 14.984375 L 29.652344 16.878906 L 30.644531 13.824219 L 28.050781 11.945312 L 31.253906 11.945312 Z M 32.25 8.890625 "/>
<path style=" stroke:none;fill-rule:nonzero;fill:rgb(100%,100%,100%);fill-opacity:1;" d="M 32.25 22.359375 L 33.238281 25.410156 L 36.4375 25.410156 L 33.851562 27.296875 L 34.839844 30.347656 L 32.25 28.457031 L 29.652344 30.347656 L 30.644531 27.296875 L 28.050781 25.410156 L 31.253906 25.410156 Z M 32.25 22.359375 "/>
<path style=" stroke:none;fill-rule:nonzero;fill:rgb(100%,100%,100%);fill-opacity:1;" d="M 32.25 35.828125 L 33.238281 38.871094 L 36.4375 38.871094 L 33.851562 40.761719 L 34.839844 43.808594 L 32.25 41.921875 L 29.652344 43.808594 L 30.644531 40.761719 L 28.050781 38.871094 L 31.253906 38.871094 Z M 32.25 35.828125 "/>
<path style=" stroke:none;fill-rule:nonzero;fill:rgb(100%,100%,100%);fill-opacity:1;" d="M 32.25 49.296875 L 33.238281 52.347656 L 36.4375 52.347656 L 33.851562 54.234375 L 34.839844 57.273438 L 32.25 55.394531 L 29.652344 57.273438 L 30.644531 54.234375 L 28.050781 52.347656 L 31.253906 52.347656 Z M 32.25 49.296875 "/>
<path style=" stroke:none;fill-rule:nonzero;fill:rgb(100%,100%,100%);fill-opacity:1;" d="M 32.25 62.765625 L 33.238281 65.8125 L 36.4375 65.8125 L 33.851562 67.699219 L 34.839844 70.746094 L 32.25 68.867188 L 29.652344 70.746094 L 30.644531 67.699219 L 28.050781 65.8125 L 31.253906 65.8125 Z M 32.25 62.765625 "/>
<path style=" stroke:none;fill-rule:nonzero;fill:rgb(100%,100%,100%);fill-opacity:1;" d="M 41.628906 15.988281 L 42.613281 19.035156 L 45.8125 19.035156 L 43.226562 20.925781 L 44.210938 23.972656 L 41.628906 22.085938 L 39.03125 23.972656 L 40.023438 20.925781 L 37.429688 19.035156 L 40.636719 19.035156 Z M 41.628906 15.988281 "/>
<path style=" stroke:none;fill-rule:nonzero;fill:rgb(100%,100%,100%);fill-opacity:1;" d="M 41.628906 29.453125 L 42.613281 32.5 L 45.8125 32.5 L 43.226562 34.386719 L 44.210938 37.4375 L 41.628906 35.554688 L 39.03125 37.4375 L 40.023438 34.386719 L 37.429688 32.5 L 40.636719 32.5 Z M 41.628906 29.453125 "/>
<path style=" stroke:none;fill-rule:nonzero;fill:rgb(100%,100%,100%);fill-opacity:1;" d="M 41.628906 42.925781 L 42.613281 45.976562 L 45.8125 45.976562 L 43.226562 47.859375 L 44.210938 50.898438 L 41.628906 49.019531 L 39.03125 50.898438 L 40.023438 47.859375 L 37.429688 45.976562 L 40.636719 45.976562 Z M 41.628906 42.925781 "/>
<path style=" stroke:none;fill-rule:nonzero;fill:rgb(100%,100%,100%);fill-opacity:1;" d="M 41.628906 56.390625 L 42.613281 59.4375 L 45.8125 59.4375 L 43.226562 61.324219 L 44.210938 64.371094 L 41.628906 62.484375 L 39.03125 64.371094 L 40.023438 61.324219 L 37.429688 59.4375 L 40.636719 59.4375 Z M 41.628906 56.390625 "/>
<path style=" stroke:none;fill-rule:nonzero;fill:rgb(100%,100%,100%);fill-opacity:1;" d="M 51.125 8.890625 L 52.113281 11.945312 L 55.324219 11.945312 L 52.726562 13.824219 L 53.714844 16.878906 L 51.125 14.984375 L 48.527344 16.878906 L 49.515625 13.824219 L 46.917969 11.945312 L 50.132812 11.945312 Z M 51.125 8.890625 "/>
<path style=" stroke:none;fill-rule:nonzero;fill:rgb(100%,100%,100%);fill-opacity:1;" d="M 51.125 22.359375 L 52.113281 25.410156 L 55.324219 25.410156 L 52.726562 27.296875 L 53.714844 30.347656 L 51.125 28.457031 L 48.527344 30.347656 L 49.515625 27.296875 L 46.917969 25.410156 L 50.132812 25.410156 Z M 51.125 22.359375 "/>
<path style=" stroke:none;fill-rule:nonzero;fill:rgb(100%,100%,100%);fill-opacity:1;" d="M 51.125 35.828125 L 52.113281 38.871094 L 55.324219 38.871094 L 52.726562 40.761719 L 53.714844 43.808594 L 51.125 41.921875 L 48.527344 43.808594 L 49.515625 40.761719 L 46.917969 38.871094 L 50.132812 38.871094 Z M 51.125 35.828125 "/>
<path style=" stroke:none;fill-rule:nonzero;fill:rgb(100%,100%,100%);fill-opacity:1;" d="M 51.125 49.296875 L 52.113281 52.347656 L 55.324219 52.347656 L 52.726562 54.234375 L 53.714844 57.273438 L 51.125 55.394531 L 48.527344 57.273438 L 49.515625 54.234375 L 46.917969 52.347656 L 50.132812 52.347656 Z M 51.125 49.296875 "/>
<path style=" stroke:none;fill-rule:nonzero;fill:rgb(100%,100%,100%);fill-opacity:1;" d="M 51.125 62.765625 L 52.113281 65.8125 L 55.324219 65.8125 L 52.726562 67.699219 L 53.714844 70.746094 L 51.125 68.867188 L 48.527344 70.746094 L 49.515625 67.699219 L 46.917969 65.8125 L 50.132812 65.8125 Z M 51.125 62.765625 "/>
<path style=" stroke:none;fill-rule:nonzero;fill:rgb(100%,100%,100%);fill-opacity:1;" d="M 60.496094 15.988281 L 61.492188 19.035156 L 64.695312 19.035156 L 62.101562 20.925781 L 63.09375 23.972656 L 60.496094 22.085938 L 57.890625 23.972656 L 58.894531 20.925781 L 56.308594 19.035156 L 59.503906 19.035156 Z M 60.496094 15.988281 "/>
<path style=" stroke:none;fill-rule:nonzero;fill:rgb(100%,100%,100%);fill-opacity:1;" d="M 60.496094 29.453125 L 61.492188 32.5 L 64.695312 32.5 L 62.101562 34.386719 L 63.09375 37.4375 L 60.496094 35.554688 L 57.890625 37.4375 L 58.894531 34.386719 L 56.308594 32.5 L 59.503906 32.5 Z M 60.496094 29.453125 "/>
<path style=" stroke:none;fill-rule:nonzero;fill:rgb(100%,100%,100%);fill-opacity:1;" d="M 60.496094 42.925781 L 61.492188 45.976562 L 64.695312 45.976562 L 62.101562 47.859375 L 63.09375 50.898438 L 60.496094 49.019531 L 57.890625 50.898438 L 58.894531 47.859375 L 56.308594 45.976562 L 59.503906 45.976562 Z M 60.496094 42.925781 "/>
<path style=" stroke:none;fill-rule:nonzero;fill:rgb(100%,100%,100%);fill-opacity:1;" d="M 60.496094 56.390625 L 61.492188 59.4375 L 64.695312 59.4375 L 62.101562 61.324219 L 63.09375 64.371094 L 60.496094 62.484375 L 57.890625 64.371094 L 58.894531 61.324219 L 56.308594 59.4375 L 59.503906 59.4375 Z M 60.496094 56.390625 "/>
<path style=" stroke:none;fill-rule:nonzero;fill:rgb(100%,100%,100%);fill-opacity:1;" d="M 69.992188 8.890625 L 70.988281 11.945312 L 74.191406 11.945312 L 71.597656 13.824219 L 72.578125 16.878906 L 69.992188 14.984375 L 67.402344 16.878906 L 68.402344 13.824219 L 65.800781 11.945312 L 69.003906 11.945312 Z M 69.992188 8.890625 "/>
<path style=" stroke:none;fill-rule:nonzero;fill:rgb(100%,100%,100%);fill-opacity:1;" d="M 69.992188 22.359375 L 70.988281 25.410156 L 74.191406 25.410156 L 71.597656 27.296875 L 72.578125 30.347656 L 69.992188 28.457031 L 67.402344 30.347656 L 68.402344 27.296875 L 65.800781 25.410156 L 69.003906 25.410156 Z M 69.992188 22.359375 "/>
<path style=" stroke:none;fill-rule:nonzero;fill:rgb(100%,100%,100%);fill-opacity:1;" d="M 69.992188 35.828125 L 70.988281 38.871094 L 74.191406 38.871094 L 71.597656 40.761719 L 72.578125 43.808594 L 69.992188 41.921875 L 67.402344 43.808594 L 68.402344 40.761719 L 65.800781 38.871094 L 69.003906 38.871094 Z M 69.992188 35.828125 "/>
<path style=" stroke:none;fill-rule:nonzero;fill:rgb(100%,100%,100%);fill-opacity:1;" d="M 69.992188 49.296875 L 70.988281 52.347656 L 74.191406 52.347656 L 71.597656 54.234375 L 72.578125 57.273438 L 69.992188 55.394531 L 67.402344 57.273438 L 68.402344 54.234375 L 65.800781 52.347656 L 69.003906 52.347656 Z M 69.992188 49.296875 "/>
<path style=" stroke:none;fill-rule:nonzero;fill:rgb(100%,100%,100%);fill-opacity:1;" d="M 69.992188 62.765625 L 70.988281 65.8125 L 74.191406 65.8125 L 71.597656 67.699219 L 72.578125 70.746094 L 69.992188 68.867188 L 67.402344 70.746094 L 68.402344 67.699219 L 65.800781 65.8125 L 69.003906 65.8125 Z M 69.992188 62.765625 "/>
<path style=" stroke:none;fill-rule:nonzero;fill:rgb(100%,100%,100%);fill-opacity:1;" d="M 79.367188 15.988281 L 80.363281 19.035156 L 83.566406 19.035156 L 80.976562 20.925781 L 81.964844 23.972656 L 79.367188 22.085938 L 76.777344 23.972656 L 77.753906 20.925781 L 75.175781 19.035156 L 78.378906 19.035156 Z M 79.367188 15.988281 "/>
<path style=" stroke:none;fill-rule:nonzero;fill:rgb(100%,100%,100%);fill-opacity:1;" d="M 79.367188 29.453125 L 80.363281 32.5 L 83.566406 32.5 L 80.976562 34.386719 L 81.964844 37.4375 L 79.367188 35.554688 L 76.777344 37.4375 L 77.753906 34.386719 L 75.175781 32.5 L 78.378906 32.5 Z M 79.367188 29.453125 "/>
<path style=" stroke:none;fill-rule:nonzero;fill:rgb(100%,100%,100%);fill-opacity:1;" d="M 79.367188 42.925781 L 80.363281 45.976562 L 83.566406 45.976562 L 80.976562 47.859375 L 81.964844 50.898438 L 79.367188 49.019531 L 76.777344 50.898438 L 77.753906 47.859375 L 75.175781 45.976562 L 78.378906 45.976562 Z M 79.367188 42.925781 "/>
<path style=" stroke:none;fill-rule:nonzero;fill:rgb(100%,100%,100%);fill-opacity:1;" d="M 79.367188 56.390625 L 80.363281 59.4375 L 83.566406 59.4375 L 80.976562 61.324219 L 81.964844 64.371094 L 79.367188 62.484375 L 76.777344 64.371094 L 77.753906 61.324219 L 75.175781 59.4375 L 78.378906 59.4375 Z M 79.367188 56.390625 "/>
<path style=" stroke:none;fill-rule:nonzero;fill:rgb(100%,100%,100%);fill-opacity:1;" d="M 88.867188 8.890625 L 89.855469 11.945312 L 93.066406 11.945312 L 90.46875 13.824219 L 91.464844 16.878906 L 88.867188 14.984375 L 86.273438 16.878906 L 87.265625 13.824219 L 84.667969 11.945312 L 87.875 11.945312 Z M 88.867188 8.890625 "/>
<path style=" stroke:none;fill-rule:nonzero;fill:rgb(100%,100%,100%);fill-opacity:1;" d="M 88.867188 22.359375 L 89.855469 25.410156 L 93.066406 25.410156 L 90.46875 27.296875 L 91.464844 30.347656 L 88.867188 28.457031 L 86.273438 30.347656 L 87.265625 27.296875 L 84.667969 25.410156 L 87.875 25.410156 Z M 88.867188 22.359375 "/>
<path style=" stroke:none;fill-rule:nonzero;fill:rgb(100%,100%,100%);fill-opacity:1;" d="M 88.867188 35.828125 L 89.855469 38.871094 L 93.066406 38.871094 L 90.46875 40.761719 L 91.464844 43.808594 L 88.867188 41.921875 L 86.273438 43.808594 L 87.265625 40.761719 L 84.667969 38.871094 L 87.875 38.871094 Z M 88.867188 35.828125 "/>
<path style=" stroke:none;fill-rule:nonzero;fill:rgb(100%,100%,100%);fill-opacity:1;" d="M 88.867188 49.296875 L 89.855469 52.347656 L 93.066406 52.347656 L 90.46875 54.234375 L 91.464844 57.273438 L 88.867188 55.394531 L 86.273438 57.273438 L 87.265625 54.234375 L 84.667969 52.347656 L 87.875 52.347656 Z M 88.867188 49.296875 "/>
<path style=" stroke:none;fill-rule:nonzero;fill:rgb(100%,100%,100%);fill-opacity:1;" d="M 88.867188 62.765625 L 89.855469 65.8125 L 93.066406 65.8125 L 90.46875 67.699219 L 91.464844 70.746094 L 88.867188 68.867188 L 86.273438 70.746094 L 87.265625 67.699219 L 84.667969 65.8125 L 87.875 65.8125 Z M 88.867188 62.765625 "/>
<path style=" stroke:none;fill-rule:nonzero;fill:rgb(100%,100%,100%);fill-opacity:1;" d="M 98.25 15.988281 L 99.238281 19.035156 L 102.433594 19.035156 L 99.84375 20.925781 L 100.839844 23.972656 L 98.25 22.085938 L 95.644531 23.972656 L 96.640625 20.925781 L 94.054688 19.035156 L 97.253906 19.035156 Z M 98.25 15.988281 "/>
<path style=" stroke:none;fill-rule:nonzero;fill:rgb(100%,100%,100%);fill-opacity:1;" d="M 98.25 29.453125 L 99.238281 32.5 L 102.433594 32.5 L 99.84375 34.386719 L 100.839844 37.4375 L 98.25 35.554688 L 95.644531 37.4375 L 96.640625 34.386719 L 94.054688 32.5 L 97.253906 32.5 Z M 98.25 29.453125 "/>
<path style=" stroke:none;fill-rule:nonzero;fill:rgb(100%,100%,100%);fill-opacity:1;" d="M 98.25 42.925781 L 99.238281 45.976562 L 102.433594 45.976562 L 99.84375 47.859375 L 100.839844 50.898438 L 98.25 49.019531 L 95.644531 50.898438 L 96.640625 47.859375 L 94.054688 45.976562 L 97.253906 45.976562 Z M 98.25 42.925781 "/>
<path style=" stroke:none;fill-rule:nonzero;fill:rgb(100%,100%,100%);fill-opacity:1;" d="M 98.25 56.390625 L 99.238281 59.4375 L 102.433594 59.4375 L 99.84375 61.324219 L 100.839844 64.371094 L 98.25 62.484375 L 95.644531 64.371094 L 96.640625 61.324219 L 94.054688 59.4375 L 97.253906 59.4375 Z M 98.25 56.390625 "/>
<path style=" stroke:none;fill-rule:nonzero;fill:rgb(100%,100%,100%);fill-opacity:1;" d="M 107.742188 8.890625 L 108.730469 11.945312 L 111.929688 11.945312 L 109.351562 13.824219 L 110.335938 16.878906 L 107.742188 14.984375 L 105.152344 16.878906 L 106.140625 13.824219 L 103.542969 11.945312 L 106.746094 11.945312 Z M 107.742188 8.890625 "/>
<path style=" stroke:none;fill-rule:nonzero;fill:rgb(100%,100%,100%);fill-opacity:1;" d="M 107.742188 22.359375 L 108.730469 25.410156 L 111.929688 25.410156 L 109.351562 27.296875 L 110.335938 30.347656 L 107.742188 28.457031 L 105.152344 30.347656 L 106.140625 27.296875 L 103.542969 25.410156 L 106.746094 25.410156 Z M 107.742188 22.359375 "/>
<path style=" stroke:none;fill-rule:nonzero;fill:rgb(100%,100%,100%);fill-opacity:1;" d="M 107.742188 35.828125 L 108.730469 38.871094 L 111.929688 38.871094 L 109.351562 40.761719 L 110.335938 43.808594 L 107.742188 41.921875 L 105.152344 43.808594 L 106.140625 40.761719 L 103.542969 38.871094 L 106.746094 38.871094 Z M 107.742188 35.828125 "/>
<path style=" stroke:none;fill-rule:nonzero;fill:rgb(100%,100%,100%);fill-opacity:1;" d="M 107.742188 49.296875 L 108.730469 52.347656 L 111.929688 52.347656 L 109.351562 54.234375 L 110.335938 57.273438 L 107.742188 55.394531 L 105.152344 57.273438 L 106.140625 54.234375 L 103.542969 52.347656 L 106.746094 52.347656 Z M 107.742188 49.296875 "/>
<path style=" stroke:none;fill-rule:nonzero;fill:rgb(100%,100%,100%);fill-opacity:1;" d="M 107.742188 62.765625 L 108.730469 65.8125 L 111.929688 65.8125 L 109.351562 67.699219 L 110.335938 70.746094 L 107.742188 68.867188 L 105.152344 70.746094 L 106.140625 67.699219 L 103.542969 65.8125 L 106.746094 65.8125 Z M 107.742188 62.765625 "/>
<path style=" stroke:none;fill-rule:nonzero;fill:rgb(100%,100%,100%);fill-opacity:1;" d="M 117.121094 15.988281 L 118.105469 19.035156 L 121.316406 19.035156 L 118.722656 20.925781 L 119.703125 23.972656 L 117.121094 22.085938 L 114.519531 23.972656 L 115.507812 20.925781 L 112.929688 19.035156 L 116.128906 19.035156 Z M 117.121094 15.988281 "/>
<path style=" stroke:none;fill-rule:nonzero;fill:rgb(100%,100%,100%);fill-opacity:1;" d="M 117.121094 29.453125 L 118.105469 32.5 L 121.316406 32.5 L 118.722656 34.386719 L 119.703125 37.4375 L 117.121094 35.554688 L 114.519531 37.4375 L 115.507812 34.386719 L 112.929688 32.5 L 116.128906 32.5 Z M 117.121094 29.453125 "/>
<path style=" stroke:none;fill-rule:nonzero;fill:rgb(100%,100%,100%);fill-opacity:1;" d="M 117.121094 42.925781 L 118.105469 45.976562 L 121.316406 45.976562 L 118.722656 47.859375 L 119.703125 50.898438 L 117.121094 49.019531 L 114.519531 50.898438 L 115.507812 47.859375 L 112.929688 45.976562 L 116.128906 45.976562 Z M 117.121094 42.925781 "/>
<path style=" stroke:none;fill-rule:nonzero;fill:rgb(100%,100%,100%);fill-opacity:1;" d="M 117.121094 56.390625 L 118.105469 59.4375 L 121.316406 59.4375 L 118.722656 61.324219 L 119.703125 64.371094 L 117.121094 62.484375 L 114.519531 64.371094 L 115.507812 61.324219 L 112.929688 59.4375 L 116.128906 59.4375 Z M 117.121094 56.390625 "/>
<path style=" stroke:none;fill-rule:nonzero;fill:rgb(100%,100%,100%);fill-opacity:1;" d="M 126.613281 8.890625 L 127.605469 11.945312 L 130.808594 11.945312 L 128.214844 13.824219 L 129.207031 16.878906 L 126.613281 14.984375 L 124.015625 16.878906 L 125.011719 13.824219 L 122.414062 11.945312 L 125.625 11.945312 Z M 126.613281 8.890625 "/>
<path style=" stroke:none;fill-rule:nonzero;fill:rgb(100%,100%,100%);fill-opacity:1;" d="M 126.613281 22.359375 L 127.605469 25.410156 L 130.808594 25.410156 L 128.214844 27.296875 L 129.207031 30.347656 L 126.613281 28.457031 L 124.015625 30.347656 L 125.011719 27.296875 L 122.414062 25.410156 L 125.625 25.410156 Z M 126.613281 22.359375 "/>
<path style=" stroke:none;fill-rule:nonzero;fill:rgb(100%,100%,100%);fill-opacity:1;" d="M 126.613281 35.828125 L 127.605469 38.871094 L 130.808594 38.871094 L 128.214844 40.761719 L 129.207031 43.808594 L 126.613281 41.921875 L 124.015625 43.808594 L 125.011719 40.761719 L 122.414062 38.871094 L 125.625 38.871094 Z M 126.613281 35.828125 "/>
<path style=" stroke:none;fill-rule:nonzero;fill:rgb(100%,100%,100%);fill-opacity:1;" d="M 126.613281 49.296875 L 127.605469 52.347656 L 130.808594 52.347656 L 128.214844 54.234375 L 129.207031 57.273438 L 126.613281 55.394531 L 124.015625 57.273438 L 125.011719 54.234375 L 122.414062 52.347656 L 125.625 52.347656 Z M 126.613281 49.296875 "/>
<path style=" stroke:none;fill-rule:nonzero;fill:rgb(100%,100%,100%);fill-opacity:1;" d="M 126.613281 62.765625 L 127.605469 65.8125 L 130.808594 65.8125 L 128.214844 67.699219 L 129.207031 70.746094 L 126.613281 68.867188 L 124.015625 70.746094 L 125.011719 67.699219 L 122.414062 65.8125 L 125.625 65.8125 Z M 126.613281 62.765625 "/>
</g>
</svg>
