<?xml version="1.0" encoding="UTF-8"?>
<svg xmlns="http://www.w3.org/2000/svg" xmlns:xlink="http://www.w3.org/1999/xlink" width="525pt" height="487.499991pt" viewBox="0 0 525 487.499991" version="1.2">
<defs>
<clipPath id="clip1">
  <path d="M 236 40 L 523.273438 40 L 523.273438 295 L 236 295 Z M 236 40 "/>
</clipPath>
</defs>
<g id="surface1">
<path style=" stroke:none;fill-rule:nonzero;fill:rgb(91.369629%,36.079407%,92.158508%);fill-opacity:1;" d="M 262.683594 418.46875 L 262.589844 418.46875 C 259.132812 418.46875 255.636719 418.363281 252.203125 418.160156 C 251.917969 418.144531 251.695312 417.898438 251.714844 417.613281 C 251.730469 417.324219 252.015625 417.113281 252.265625 417.121094 C 255.679688 417.324219 259.152344 417.425781 262.589844 417.425781 C 262.878906 417.425781 263.15625 417.660156 263.15625 417.945312 C 263.15625 418.234375 262.96875 418.46875 262.683594 418.46875 Z M 273.132812 418.152344 C 272.859375 418.152344 272.628906 417.9375 272.613281 417.660156 C 272.597656 417.375 272.816406 417.128906 273.101562 417.109375 C 276.5625 416.902344 280.054688 416.585938 283.484375 416.171875 C 283.75 416.136719 284.027344 416.339844 284.0625 416.628906 C 284.097656 416.914062 283.894531 417.175781 283.605469 417.207031 C 280.160156 417.625 276.644531 417.941406 273.164062 418.148438 C 273.15625 418.152344 273.144531 418.152344 273.132812 418.152344 Z M 241.824219 417.234375 C 241.800781 417.234375 241.78125 417.234375 241.757812 417.230469 C 238.304688 416.816406 234.816406 416.292969 231.390625 415.671875 C 231.109375 415.621094 230.921875 415.351562 230.972656 415.066406 C 231.023438 414.785156 231.300781 414.597656 231.578125 414.648438 C 234.980469 415.265625 238.449219 415.785156 241.882812 416.195312 C 242.167969 416.230469 242.375 416.488281 242.339844 416.777344 C 242.308594 417.039062 242.082031 417.234375 241.824219 417.234375 Z M 293.878906 415.648438 C 293.632812 415.648438 293.414062 415.472656 293.367188 415.21875 C 293.316406 414.9375 293.503906 414.664062 293.785156 414.613281 C 297.1875 413.996094 300.613281 413.261719 303.976562 412.433594 C 304.261719 412.363281 304.539062 412.535156 304.605469 412.8125 C 304.675781 413.09375 304.503906 413.375 304.226562 413.445312 C 300.84375 414.277344 297.394531 415.015625 293.972656 415.640625 C 293.941406 415.644531 293.910156 415.648438 293.878906 415.648438 Z M 221.261719 413.503906 C 221.21875 413.503906 221.179688 413.5 221.136719 413.488281 C 217.761719 412.664062 214.359375 411.71875 211.03125 410.6875 C 210.757812 410.601562 210.605469 410.3125 210.691406 410.035156 C 210.773438 409.761719 211.0625 409.605469 211.34375 409.691406 C 214.648438 410.71875 218.027344 411.65625 221.386719 412.476562 C 221.664062 412.546875 221.835938 412.828125 221.765625 413.109375 C 221.710938 413.34375 221.496094 413.503906 221.261719 413.503906 Z M 314.171875 410.652344 C 313.949219 410.652344 313.742188 410.511719 313.671875 410.289062 C 313.585938 410.011719 313.742188 409.722656 314.015625 409.636719 C 317.316406 408.609375 320.628906 407.464844 323.867188 406.234375 C 324.136719 406.128906 324.4375 406.265625 324.539062 406.535156 C 324.640625 406.804688 324.507812 407.105469 324.238281 407.207031 C 320.980469 408.445312 317.644531 409.597656 314.324219 410.628906 C 314.273438 410.648438 314.222656 410.652344 314.171875 410.652344 Z M 201.285156 407.300781 C 201.222656 407.300781 201.160156 407.292969 201.101562 407.269531 C 197.839844 406.035156 194.574219 404.683594 191.398438 403.253906 C 191.136719 403.136719 191.019531 402.828125 191.136719 402.5625 C 191.253906 402.300781 191.566406 402.1875 191.824219 402.304688 C 194.984375 403.722656 198.230469 405.066406 201.46875 406.292969 C 201.738281 406.394531 201.875 406.695312 201.773438 406.964844 C 201.695312 407.175781 201.496094 407.300781 201.285156 407.300781 Z M 333.691406 403.242188 C 333.492188 403.242188 333.304688 403.128906 333.214844 402.9375 C 333.097656 402.675781 333.214844 402.367188 333.476562 402.246094 C 336.628906 400.828125 339.777344 399.292969 342.832031 397.683594 C 343.085938 397.550781 343.398438 397.648438 343.535156 397.902344 C 343.667969 398.15625 343.570312 398.472656 343.316406 398.605469 C 340.242188 400.222656 337.074219 401.769531 333.90625 403.199219 C 333.835938 403.230469 333.761719 403.242188 333.691406 403.242188 Z M 182.199219 398.714844 C 182.117188 398.714844 182.035156 398.695312 181.957031 398.65625 C 178.878906 397.039062 175.800781 395.304688 172.816406 393.496094 C 172.570312 393.347656 172.492188 393.027344 172.640625 392.78125 C 172.789062 392.535156 173.113281 392.460938 173.355469 392.605469 C 176.324219 394.402344 179.382812 396.128906 182.441406 397.734375 C 182.695312 397.867188 182.796875 398.183594 182.660156 398.4375 C 182.570312 398.613281 182.386719 398.714844 182.199219 398.714844 Z M 352.167969 393.527344 C 351.988281 393.527344 351.816406 393.4375 351.71875 393.277344 C 351.570312 393.03125 351.648438 392.710938 351.894531 392.5625 C 354.847656 390.777344 357.789062 388.871094 360.636719 386.902344 C 360.875 386.738281 361.199219 386.792969 361.363281 387.03125 C 361.527344 387.269531 361.46875 387.59375 361.230469 387.757812 C 358.363281 389.738281 355.402344 391.65625 352.433594 393.453125 C 352.351562 393.503906 352.257812 393.527344 352.167969 393.527344 Z M 164.304688 387.890625 C 164.199219 387.890625 164.097656 387.859375 164.007812 387.796875 C 161.140625 385.816406 158.300781 383.726562 155.558594 381.578125 C 155.332031 381.402344 155.292969 381.074219 155.46875 380.847656 C 155.648438 380.621094 155.972656 380.582031 156.203125 380.757812 C 158.925781 382.894531 161.75 384.972656 164.601562 386.941406 C 164.835938 387.105469 164.894531 387.429688 164.730469 387.664062 C 164.632812 387.8125 164.46875 387.890625 164.304688 387.890625 Z M 369.34375 381.652344 C 369.191406 381.652344 369.039062 381.585938 368.933594 381.453125 C 368.757812 381.226562 368.796875 380.898438 369.023438 380.722656 C 371.75 378.582031 374.441406 376.339844 377.027344 374.050781 C 377.242188 373.859375 377.570312 373.875 377.761719 374.09375 C 377.953125 374.308594 377.933594 374.636719 377.71875 374.828125 C 375.117188 377.132812 372.410156 379.390625 369.667969 381.542969 C 369.570312 381.617188 369.457031 381.652344 369.34375 381.652344 Z M 147.847656 374.996094 C 147.722656 374.996094 147.601562 374.953125 147.5 374.863281 C 144.894531 372.554688 142.324219 370.140625 139.863281 367.679688 C 139.660156 367.476562 139.660156 367.148438 139.863281 366.945312 C 140.066406 366.742188 140.398438 366.742188 140.601562 366.945312 C 143.046875 369.386719 145.601562 371.789062 148.195312 374.085938 C 148.40625 374.277344 148.429688 374.605469 148.238281 374.820312 C 148.132812 374.9375 147.992188 374.996094 147.847656 374.996094 Z M 384.984375 367.796875 C 384.851562 367.796875 384.71875 367.746094 384.617188 367.644531 C 384.414062 367.441406 384.414062 367.109375 384.617188 366.90625 C 387.066406 364.457031 389.46875 361.90625 391.761719 359.320312 C 391.953125 359.105469 392.28125 359.085938 392.5 359.277344 C 392.714844 359.46875 392.734375 359.796875 392.542969 360.011719 C 390.238281 362.613281 387.816406 365.179688 385.351562 367.644531 C 385.25 367.746094 385.117188 367.796875 384.984375 367.796875 Z M 133.0625 360.226562 C 132.917969 360.226562 132.773438 360.167969 132.671875 360.054688 C 130.359375 357.449219 128.101562 354.742188 125.953125 352.007812 C 125.777344 351.78125 125.8125 351.457031 126.042969 351.277344 C 126.265625 351.101562 126.59375 351.136719 126.773438 351.367188 C 128.90625 354.082031 131.15625 356.773438 133.453125 359.359375 C 133.644531 359.574219 133.621094 359.90625 133.40625 360.097656 C 133.308594 360.183594 133.183594 360.226562 133.0625 360.226562 Z M 398.855469 352.160156 C 398.742188 352.160156 398.628906 352.125 398.535156 352.050781 C 398.308594 351.871094 398.269531 351.546875 398.445312 351.320312 C 400.585938 348.589844 402.667969 345.765625 404.632812 342.925781 C 404.796875 342.691406 405.121094 342.632812 405.359375 342.796875 C 405.59375 342.957031 405.652344 343.28125 405.488281 343.519531 C 403.511719 346.375 401.417969 349.21875 399.265625 351.960938 C 399.164062 352.09375 399.011719 352.160156 398.855469 352.160156 Z M 120.160156 343.804688 C 119.992188 343.804688 119.832031 343.726562 119.730469 343.578125 C 117.753906 340.722656 115.832031 337.765625 114.027344 334.789062 C 113.878906 334.546875 113.957031 334.222656 114.203125 334.074219 C 114.449219 333.925781 114.769531 334.003906 114.917969 334.25 C 116.714844 337.207031 118.621094 340.144531 120.585938 342.984375 C 120.75 343.222656 120.691406 343.546875 120.453125 343.710938 C 120.367188 343.773438 120.261719 343.804688 120.160156 343.804688 Z M 410.75 334.96875 C 410.65625 334.96875 410.5625 334.941406 410.480469 334.890625 C 410.234375 334.742188 410.15625 334.421875 410.304688 334.175781 C 412.101562 331.210938 413.828125 328.15625 415.4375 325.097656 C 415.574219 324.839844 415.886719 324.746094 416.140625 324.878906 C 416.398438 325.011719 416.496094 325.328125 416.359375 325.582031 C 414.742188 328.660156 413.003906 331.734375 411.195312 334.714844 C 411.097656 334.878906 410.925781 334.96875 410.75 334.96875 Z M 109.328125 325.957031 C 109.140625 325.957031 108.960938 325.855469 108.867188 325.675781 C 107.25 322.609375 105.703125 319.445312 104.269531 316.273438 C 104.152344 316.011719 104.265625 315.699219 104.527344 315.582031 C 104.789062 315.464844 105.101562 315.578125 105.21875 315.84375 C 106.644531 318.996094 108.183594 322.140625 109.789062 325.191406 C 109.925781 325.445312 109.824219 325.761719 109.570312 325.894531 C 109.492188 325.9375 109.410156 325.957031 109.328125 325.957031 Z M 420.488281 316.457031 C 420.417969 316.457031 420.34375 316.441406 420.277344 316.410156 C 420.011719 316.292969 419.894531 315.984375 420.015625 315.722656 C 421.4375 312.570312 422.78125 309.324219 424.011719 306.082031 C 424.113281 305.8125 424.414062 305.675781 424.683594 305.78125 C 424.953125 305.882812 425.089844 306.183594 424.988281 306.453125 C 423.746094 309.714844 422.394531 312.976562 420.964844 316.148438 C 420.878906 316.34375 420.6875 316.457031 420.488281 316.457031 Z M 100.738281 306.945312 C 100.53125 306.945312 100.332031 306.816406 100.25 306.609375 C 99.011719 303.351562 97.859375 300.019531 96.824219 296.703125 C 96.738281 296.429688 96.890625 296.136719 97.164062 296.050781 C 97.445312 295.964844 97.734375 296.117188 97.816406 296.394531 C 98.847656 299.691406 99.996094 303.003906 101.226562 306.238281 C 101.328125 306.507812 101.195312 306.808594 100.925781 306.910156 C 100.863281 306.933594 100.800781 306.945312 100.738281 306.945312 Z M 427.914062 296.890625 C 427.863281 296.890625 427.8125 296.882812 427.757812 296.867188 C 427.484375 296.78125 427.332031 296.488281 427.417969 296.214844 C 428.441406 292.917969 429.382812 289.542969 430.210938 286.175781 C 430.277344 285.898438 430.558594 285.722656 430.839844 285.792969 C 431.121094 285.863281 431.289062 286.144531 431.222656 286.425781 C 430.390625 289.8125 429.445312 293.207031 428.410156 296.523438 C 428.34375 296.746094 428.136719 296.890625 427.914062 296.890625 Z M 94.507812 287.003906 C 94.273438 287.003906 94.0625 286.84375 94.003906 286.609375 C 93.167969 283.222656 92.425781 279.773438 91.800781 276.359375 C 91.75 276.078125 91.9375 275.804688 92.222656 275.753906 C 92.5 275.703125 92.777344 275.890625 92.828125 276.171875 C 93.449219 279.566406 94.183594 282.992188 95.015625 286.359375 C 95.085938 286.636719 94.914062 286.921875 94.632812 286.988281 C 94.589844 287 94.550781 287.003906 94.507812 287.003906 Z M 432.898438 276.601562 C 432.867188 276.601562 432.835938 276.597656 432.804688 276.59375 C 432.519531 276.542969 432.332031 276.269531 432.382812 275.988281 C 433.003906 272.582031 433.527344 269.117188 433.941406 265.6875 C 433.972656 265.398438 434.234375 265.199219 434.519531 265.230469 C 434.804688 265.265625 435.007812 265.523438 434.972656 265.808594 C 434.558594 269.261719 434.035156 272.75 433.410156 276.175781 C 433.363281 276.425781 433.144531 276.601562 432.898438 276.601562 Z M 90.742188 266.457031 C 90.484375 266.457031 90.257812 266.261719 90.226562 265.996094 C 89.808594 262.558594 89.488281 259.046875 89.277344 255.558594 C 89.261719 255.273438 89.480469 255.027344 89.765625 255.007812 C 90.058594 254.988281 90.300781 255.210938 90.316406 255.496094 C 90.527344 258.964844 90.847656 262.457031 91.261719 265.871094 C 91.296875 266.15625 91.09375 266.417969 90.808594 266.453125 C 90.785156 266.457031 90.765625 266.457031 90.742188 266.457031 Z M 435.390625 255.859375 C 435.382812 255.859375 435.371094 255.859375 435.359375 255.859375 C 435.074219 255.84375 434.855469 255.597656 434.871094 255.308594 C 435.078125 251.859375 435.179688 248.355469 435.179688 244.894531 L 435.179688 244.527344 C 435.179688 244.238281 435.414062 244.007812 435.703125 244.007812 C 435.988281 244.007812 436.222656 244.238281 436.222656 244.527344 L 436.222656 244.894531 C 436.222656 248.375 436.117188 251.898438 435.910156 255.371094 C 435.894531 255.648438 435.664062 255.859375 435.390625 255.859375 Z M 89.476562 245.601562 C 89.191406 245.601562 88.957031 245.371094 88.957031 245.082031 L 88.957031 244.894531 C 88.957031 241.472656 89.058594 238.011719 89.257812 234.605469 C 89.273438 234.320312 89.527344 234.101562 89.808594 234.117188 C 90.09375 234.132812 90.3125 234.378906 90.296875 234.667969 C 90.097656 238.054688 90 241.496094 90 244.894531 L 90 245.082031 C 90 245.371094 89.765625 245.601562 89.476562 245.601562 Z M 435.367188 234.601562 C 435.097656 234.601562 434.867188 234.390625 434.851562 234.113281 C 434.636719 230.652344 434.3125 227.160156 433.894531 223.738281 C 433.859375 223.453125 434.0625 223.195312 434.351562 223.160156 C 434.625 223.117188 434.894531 223.328125 434.929688 223.613281 C 435.351562 227.054688 435.675781 230.566406 435.890625 234.050781 C 435.910156 234.335938 435.691406 234.582031 435.402344 234.601562 C 435.390625 234.601562 435.378906 234.601562 435.367188 234.601562 Z M 90.699219 224.75 C 90.679688 224.75 90.660156 224.75 90.636719 224.746094 C 90.351562 224.710938 90.148438 224.453125 90.183594 224.167969 C 90.59375 220.707031 91.117188 217.222656 91.734375 213.800781 C 91.785156 213.515625 92.058594 213.328125 92.339844 213.382812 C 92.621094 213.433594 92.8125 213.703125 92.761719 213.988281 C 92.144531 217.386719 91.625 220.851562 91.214844 224.289062 C 91.183594 224.554688 90.960938 224.75 90.699219 224.75 Z M 432.832031 213.867188 C 432.582031 213.867188 432.363281 213.691406 432.316406 213.441406 C 431.691406 210.035156 430.953125 206.609375 430.121094 203.257812 C 430.050781 202.976562 430.222656 202.695312 430.5 202.625 C 430.78125 202.558594 431.0625 202.726562 431.132812 203.007812 C 431.96875 206.378906 432.710938 209.828125 433.34375 213.253906 C 433.394531 213.535156 433.207031 213.808594 432.925781 213.859375 C 432.894531 213.863281 432.863281 213.867188 432.832031 213.867188 Z M 94.417969 204.191406 C 94.378906 204.191406 94.335938 204.1875 94.296875 204.179688 C 94.015625 204.109375 93.84375 203.828125 93.914062 203.546875 C 94.738281 200.171875 95.679688 196.773438 96.710938 193.445312 C 96.796875 193.171875 97.082031 193.015625 97.363281 193.101562 C 97.640625 193.1875 97.792969 193.480469 97.707031 193.753906 C 96.683594 197.0625 95.746094 200.4375 94.925781 203.796875 C 94.867188 204.035156 94.65625 204.191406 94.417969 204.191406 Z M 427.804688 193.589844 C 427.582031 193.589844 427.375 193.449219 427.304688 193.226562 C 426.269531 189.925781 425.121094 186.613281 423.886719 183.382812 C 423.785156 183.113281 423.917969 182.8125 424.1875 182.710938 C 424.460938 182.609375 424.757812 182.742188 424.859375 183.011719 C 426.101562 186.261719 427.257812 189.59375 428.300781 192.914062 C 428.386719 193.1875 428.234375 193.480469 427.960938 193.566406 C 427.90625 193.582031 427.855469 193.589844 427.804688 193.589844 Z M 100.613281 184.21875 C 100.550781 184.21875 100.488281 184.210938 100.429688 184.1875 C 100.160156 184.085938 100.023438 183.785156 100.125 183.515625 C 101.359375 180.253906 102.710938 176.988281 104.136719 173.8125 C 104.253906 173.550781 104.566406 173.433594 104.828125 173.550781 C 105.089844 173.667969 105.207031 173.976562 105.089844 174.238281 C 103.667969 177.398438 102.328125 180.640625 101.101562 183.882812 C 101.019531 184.09375 100.824219 184.21875 100.613281 184.21875 Z M 420.359375 174.089844 C 420.160156 174.089844 419.972656 173.976562 419.886719 173.785156 C 418.460938 170.640625 416.917969 167.496094 415.304688 164.4375 C 415.167969 164.183594 415.265625 163.871094 415.519531 163.734375 C 415.773438 163.601562 416.089844 163.699219 416.226562 163.953125 C 417.851562 167.027344 419.402344 170.191406 420.832031 173.351562 C 420.953125 173.617188 420.835938 173.921875 420.574219 174.042969 C 420.503906 174.074219 420.429688 174.089844 420.359375 174.089844 Z M 109.191406 165.136719 C 109.109375 165.136719 109.027344 165.117188 108.949219 165.078125 C 108.695312 164.945312 108.597656 164.628906 108.730469 164.375 C 110.351562 161.285156 112.089844 158.210938 113.886719 155.234375 C 114.039062 154.988281 114.359375 154.910156 114.601562 155.058594 C 114.847656 155.207031 114.929688 155.527344 114.777344 155.773438 C 112.992188 158.730469 111.265625 161.789062 109.652344 164.859375 C 109.5625 165.035156 109.378906 165.136719 109.191406 165.136719 Z M 410.609375 155.636719 C 410.4375 155.636719 410.265625 155.546875 410.164062 155.386719 C 408.367188 152.433594 406.457031 149.496094 404.488281 146.65625 C 404.324219 146.421875 404.382812 146.097656 404.617188 145.933594 C 404.855469 145.769531 405.179688 145.828125 405.34375 146.0625 C 407.324219 148.917969 409.246094 151.871094 411.054688 154.84375 C 411.207031 155.089844 411.128906 155.410156 410.882812 155.5625 C 410.796875 155.613281 410.703125 155.636719 410.609375 155.636719 Z M 120.011719 147.242188 C 119.910156 147.242188 119.808594 147.210938 119.71875 147.148438 C 119.480469 146.988281 119.421875 146.664062 119.585938 146.425781 C 121.558594 143.566406 123.648438 140.722656 125.800781 137.976562 C 125.976562 137.75 126.304688 137.710938 126.53125 137.886719 C 126.757812 138.066406 126.796875 138.394531 126.621094 138.621094 C 124.484375 141.351562 122.402344 144.175781 120.441406 147.015625 C 120.339844 147.164062 120.179688 147.242188 120.011719 147.242188 Z M 398.703125 138.484375 C 398.550781 138.484375 398.394531 138.414062 398.292969 138.285156 C 396.160156 135.574219 393.910156 132.882812 391.605469 130.296875 C 391.414062 130.082031 391.433594 129.75 391.648438 129.558594 C 391.863281 129.367188 392.191406 129.386719 392.386719 129.601562 C 394.703125 132.207031 396.964844 134.910156 399.113281 137.640625 C 399.289062 137.867188 399.25 138.191406 399.023438 138.371094 C 398.929688 138.445312 398.816406 138.484375 398.703125 138.484375 Z M 132.902344 130.785156 C 132.78125 130.785156 132.65625 130.742188 132.558594 130.652344 C 132.34375 130.464844 132.324219 130.132812 132.515625 129.917969 C 134.816406 127.3125 137.234375 124.742188 139.695312 122.28125 C 139.898438 122.074219 140.230469 122.074219 140.433594 122.277344 C 140.636719 122.480469 140.636719 122.8125 140.433594 123.015625 C 137.988281 125.464844 135.585938 128.019531 133.292969 130.609375 C 133.191406 130.726562 133.046875 130.785156 132.902344 130.785156 Z M 384.816406 122.871094 C 384.683594 122.871094 384.550781 122.820312 384.449219 122.71875 C 381.996094 120.273438 379.4375 117.875 376.847656 115.585938 C 376.632812 115.394531 376.613281 115.066406 376.804688 114.851562 C 376.996094 114.636719 377.324219 114.617188 377.539062 114.804688 C 380.144531 117.105469 382.714844 119.519531 385.1875 121.980469 C 385.390625 122.183594 385.390625 122.515625 385.1875 122.71875 C 385.085938 122.820312 384.949219 122.871094 384.816406 122.871094 Z M 147.667969 115.996094 C 147.527344 115.996094 147.382812 115.9375 147.28125 115.824219 C 147.089844 115.609375 147.109375 115.277344 147.324219 115.085938 C 149.925781 112.777344 152.632812 110.515625 155.367188 108.367188 C 155.589844 108.1875 155.921875 108.226562 156.097656 108.453125 C 156.277344 108.679688 156.238281 109.007812 156.007812 109.183594 C 153.292969 111.320312 150.601562 113.570312 148.015625 115.867188 C 147.917969 115.953125 147.792969 115.996094 147.667969 115.996094 Z M 369.15625 109.03125 C 369.042969 109.03125 368.929688 108.996094 368.832031 108.921875 C 366.109375 106.792969 363.28125 104.714844 360.429688 102.75 C 360.191406 102.585938 360.132812 102.261719 360.296875 102.023438 C 360.460938 101.785156 360.785156 101.730469 361.019531 101.890625 C 363.890625 103.867188 366.734375 105.957031 369.476562 108.101562 C 369.703125 108.277344 369.742188 108.605469 369.566406 108.832031 C 369.460938 108.964844 369.308594 109.03125 369.15625 109.03125 Z M 164.09375 103.089844 C 163.929688 103.089844 163.765625 103.011719 163.664062 102.867188 C 163.5 102.628906 163.558594 102.304688 163.796875 102.140625 C 166.660156 100.15625 169.617188 98.238281 172.585938 96.4375 C 172.832031 96.289062 173.152344 96.363281 173.300781 96.613281 C 173.449219 96.855469 173.371094 97.175781 173.125 97.328125 C 170.175781 99.117188 167.238281 101.023438 164.390625 102.996094 C 164.300781 103.058594 164.195312 103.089844 164.09375 103.089844 Z M 351.933594 97.167969 C 351.84375 97.167969 351.75 97.144531 351.664062 97.09375 C 348.695312 95.300781 345.636719 93.578125 342.574219 91.972656 C 342.320312 91.839844 342.222656 91.527344 342.355469 91.269531 C 342.488281 91.015625 342.804688 90.917969 343.058594 91.050781 C 346.140625 92.664062 349.214844 94.398438 352.203125 96.199219 C 352.449219 96.347656 352.527344 96.667969 352.378906 96.914062 C 352.28125 97.078125 352.109375 97.167969 351.933594 97.167969 Z M 181.941406 92.253906 C 181.753906 92.253906 181.574219 92.152344 181.480469 91.976562 C 181.347656 91.722656 181.445312 91.40625 181.699219 91.273438 C 184.773438 89.652344 187.941406 88.101562 191.105469 86.671875 C 191.363281 86.554688 191.675781 86.667969 191.792969 86.933594 C 191.914062 87.195312 191.796875 87.503906 191.535156 87.621094 C 188.386719 89.042969 185.242188 90.582031 182.183594 92.195312 C 182.105469 92.234375 182.023438 92.253906 181.941406 92.253906 Z M 333.402344 87.460938 C 333.332031 87.460938 333.257812 87.445312 333.1875 87.414062 C 330.023438 85.996094 326.777344 84.65625 323.539062 83.433594 C 323.269531 83.332031 323.132812 83.03125 323.234375 82.761719 C 323.335938 82.492188 323.636719 82.355469 323.90625 82.460938 C 327.164062 83.6875 330.433594 85.035156 333.617188 86.464844 C 333.878906 86.582031 333.996094 86.890625 333.878906 87.152344 C 333.789062 87.347656 333.601562 87.460938 333.402344 87.460938 Z M 200.953125 83.660156 C 200.746094 83.660156 200.546875 83.53125 200.46875 83.324219 C 200.363281 83.054688 200.5 82.753906 200.769531 82.652344 C 204.019531 81.410156 207.355469 80.257812 210.675781 79.21875 C 210.957031 79.132812 211.246094 79.285156 211.328125 79.558594 C 211.414062 79.832031 211.261719 80.125 210.988281 80.210938 C 207.6875 81.246094 204.375 82.394531 201.140625 83.625 C 201.078125 83.648438 201.015625 83.660156 200.953125 83.660156 Z M 313.816406 80.070312 C 313.765625 80.070312 313.714844 80.0625 313.664062 80.046875 C 310.355469 79.023438 306.976562 78.089844 303.617188 77.273438 C 303.335938 77.203125 303.164062 76.921875 303.234375 76.640625 C 303.300781 76.363281 303.589844 76.191406 303.863281 76.257812 C 307.242188 77.082031 310.640625 78.023438 313.96875 79.050781 C 314.246094 79.136719 314.398438 79.425781 314.3125 79.703125 C 314.246094 79.925781 314.039062 80.070312 313.816406 80.070312 Z M 220.898438 77.417969 C 220.664062 77.417969 220.453125 77.261719 220.394531 77.023438 C 220.324219 76.746094 220.496094 76.460938 220.773438 76.394531 C 224.148438 75.558594 227.597656 74.816406 231.027344 74.1875 C 231.300781 74.132812 231.578125 74.320312 231.632812 74.605469 C 231.683594 74.886719 231.496094 75.160156 231.214844 75.210938 C 227.808594 75.835938 224.378906 76.574219 221.023438 77.402344 C 220.984375 77.414062 220.941406 77.417969 220.898438 77.417969 Z M 293.511719 75.121094 C 293.480469 75.121094 293.449219 75.117188 293.417969 75.113281 C 290.019531 74.5 286.550781 73.980469 283.113281 73.574219 C 282.828125 73.542969 282.621094 73.28125 282.65625 72.996094 C 282.6875 72.710938 282.949219 72.507812 283.234375 72.539062 C 286.691406 72.949219 290.179688 73.46875 293.605469 74.085938 C 293.886719 74.140625 294.074219 74.410156 294.023438 74.691406 C 293.980469 74.945312 293.761719 75.121094 293.511719 75.121094 Z M 241.453125 73.644531 C 241.191406 73.644531 240.964844 73.449219 240.933594 73.1875 C 240.902344 72.902344 241.101562 72.640625 241.390625 72.605469 C 244.84375 72.1875 248.355469 71.867188 251.832031 71.652344 C 252.101562 71.640625 252.363281 71.855469 252.382812 72.140625 C 252.398438 72.429688 252.179688 72.675781 251.894531 72.695312 C 248.441406 72.902344 244.949219 73.222656 241.515625 73.640625 C 241.492188 73.644531 241.472656 73.644531 241.453125 73.644531 Z M 272.761719 72.660156 C 272.75 72.660156 272.742188 72.660156 272.730469 72.660156 C 269.378906 72.464844 265.96875 72.367188 262.589844 72.367188 L 262.3125 72.367188 C 262.023438 72.367188 261.792969 72.136719 261.792969 71.847656 C 261.792969 71.558594 262.023438 71.328125 262.3125 71.328125 L 262.585938 71.324219 C 265.988281 71.324219 269.421875 71.425781 272.792969 71.621094 C 273.078125 71.636719 273.300781 71.882812 273.28125 72.171875 C 273.265625 72.449219 273.035156 72.660156 272.761719 72.660156 Z M 272.761719 72.660156 "/>
<g clip-path="url(#clip1)" clip-rule="nonzero">
<path style=" stroke:none;fill-rule:nonzero;fill:rgb(91.369629%,36.079407%,92.158508%);fill-opacity:1;" d="M 482.058594 212.292969 C 491.855469 186.308594 493.222656 156.949219 483.964844 128.488281 C 462.316406 61.914062 390.777344 25.492188 324.175781 47.132812 C 257.578125 68.777344 221.144531 140.292969 242.792969 206.863281 C 264.445312 273.4375 335.984375 309.863281 402.582031 288.21875 C 431.054688 278.964844 454.003906 260.59375 469.269531 237.394531 L 523.167969 249.03125 Z M 482.058594 212.292969 "/>
</g>
<path style=" stroke:none;fill-rule:nonzero;fill:rgb(100%,81.17981%,72.549438%);fill-opacity:1;" d="M 490.125 163.152344 C 484.496094 164.613281 478.914062 166.382812 473.488281 168.59375 C 453.90625 176.574219 439.210938 189.535156 432.109375 205.089844 C 426.628906 217.089844 425.730469 230.617188 425.53125 239.75 C 425.414062 245.027344 425.46875 251.125 427.601562 256.679688 C 429.300781 261.09375 432.289062 265.011719 434.960938 268.339844 C 435.628906 269.171875 436.328125 270.015625 437.046875 270.867188 C 436.835938 271.019531 436.625 271.175781 436.414062 271.324219 C 435.703125 270.484375 435.011719 269.648438 434.351562 268.828125 C 431.644531 265.457031 428.609375 261.476562 426.875 256.960938 C 424.6875 251.269531 424.632812 245.085938 424.75 239.730469 C 424.949219 230.53125 425.855469 216.898438 431.398438 204.765625 C 438.585938 189.027344 453.425781 175.925781 473.191406 167.871094 C 478.707031 165.625 484.375 163.832031 490.089844 162.355469 C 490.101562 162.621094 490.117188 162.886719 490.125 163.152344 Z M 282.378906 122.015625 C 286.496094 117.660156 290.367188 113.300781 292.449219 107.878906 C 295.714844 99.382812 293.855469 89.730469 291.609375 81.410156 C 290.121094 75.882812 288.324219 71.101562 286.234375 67.050781 C 286.023438 67.210938 285.8125 67.371094 285.605469 67.53125 C 287.640625 71.503906 289.394531 76.195312 290.855469 81.613281 C 293.070312 89.8125 294.902344 99.3125 291.722656 107.597656 C 289.6875 112.886719 285.871094 117.183594 281.808594 121.480469 C 267.917969 136.171875 252.808594 149.707031 236.6875 161.910156 C 236.671875 162.25 236.652344 162.585938 236.636719 162.921875 C 252.988281 150.589844 268.304688 136.898438 282.378906 122.015625 Z M 299.453125 227.199219 C 292.15625 227.464844 284.453125 229.734375 276.558594 233.949219 C 271.363281 236.722656 266.511719 240.089844 262.085938 243.96875 C 262.246094 244.175781 262.40625 244.382812 262.5625 244.589844 C 266.953125 240.734375 271.769531 237.390625 276.925781 234.636719 C 284.714844 230.480469 292.304688 228.242188 299.480469 227.980469 C 316.410156 227.367188 333.917969 238.246094 344.109375 255.6875 C 351.152344 267.746094 354.390625 281.28125 356.070312 294.246094 C 356.335938 294.261719 356.601562 294.273438 356.863281 294.285156 C 355.175781 281.195312 351.917969 267.507812 344.785156 255.296875 C 334.449219 237.605469 316.65625 226.574219 299.453125 227.199219 Z M 418.898438 85.746094 C 420.617188 85.878906 422.328125 85.941406 424.035156 85.941406 C 433.976562 85.941406 443.730469 83.808594 452.886719 81.429688 C 453.804688 81.191406 454.722656 80.9375 455.640625 80.695312 C 455.4375 80.480469 455.238281 80.261719 455.035156 80.046875 C 454.253906 80.253906 453.472656 80.472656 452.6875 80.675781 C 442.027344 83.441406 430.5625 85.878906 418.960938 84.964844 C 406.535156 83.984375 395.609375 78.878906 388.992188 70.953125 C 382.15625 62.773438 380.316406 51.382812 384.0625 42.601562 C 383.796875 42.558594 383.53125 42.507812 383.265625 42.464844 C 379.511719 51.488281 381.417969 63.109375 388.390625 71.453125 C 395.144531 79.539062 406.265625 84.746094 418.898438 85.746094 Z M 463.859375 113.226562 C 468.875 113.039062 473.746094 113.414062 478.386719 114.289062 C 478.253906 114 478.125 113.703125 477.988281 113.414062 C 473.453125 112.601562 468.707031 112.261719 463.828125 112.445312 C 451.769531 112.898438 438.976562 116.351562 424.710938 123 C 423.75 123.449219 422.789062 123.910156 421.824219 124.371094 C 417.800781 126.292969 413.636719 128.28125 409.292969 129.511719 C 402.722656 131.371094 395.898438 131.472656 390.101562 131.324219 C 380.550781 131.085938 373.449219 130.035156 367.082031 127.921875 C 349.714844 122.15625 335.351562 106.21875 330.492188 87.320312 C 326.960938 73.574219 328.136719 58.5 333.605469 44.460938 C 333.292969 44.539062 332.980469 44.625 332.667969 44.699219 C 327.320312 58.742188 326.203125 73.78125 329.738281 87.515625 C 334.660156 106.664062 349.222656 122.816406 366.835938 128.660156 C 373.28125 130.800781 380.449219 131.863281 390.082031 132.105469 C 395.945312 132.253906 402.839844 132.152344 409.507812 130.261719 C 413.914062 129.015625 418.105469 127.011719 422.164062 125.074219 C 423.121094 124.617188 424.082031 124.160156 425.042969 123.710938 C 439.210938 117.101562 451.90625 113.675781 463.859375 113.226562 Z M 385.9375 255.371094 C 385.441406 233.164062 383.003906 210.558594 368.6875 195.628906 C 359.660156 186.214844 347.101562 181.1875 335.011719 176.84375 C 324.777344 173.167969 314.726562 169.945312 304.324219 170.957031 C 294.765625 171.882812 286.0625 176.492188 280.34375 179.882812 C 269.0625 186.570312 254.691406 197.558594 245.238281 213.695312 C 245.355469 214.003906 245.480469 214.308594 245.605469 214.617188 C 254.972656 198.335938 269.421875 187.265625 280.746094 180.554688 C 286.394531 177.203125 294.996094 172.644531 304.402344 171.734375 C 314.644531 170.742188 324.601562 173.933594 334.746094 177.578125 C 346.75 181.890625 359.214844 186.878906 368.125 196.167969 C 382.253906 210.90625 384.660156 233.339844 385.15625 255.390625 L 385.191406 256.9375 C 385.453125 268.734375 385.71875 280.757812 388.03125 292.015625 C 388.285156 291.964844 388.542969 291.910156 388.796875 291.859375 C 386.5 280.660156 386.234375 268.679688 385.972656 256.917969 Z M 385.9375 255.371094 "/>
<path style=" stroke:none;fill-rule:nonzero;fill:rgb(18.03894%,6.269836%,25.878906%);fill-opacity:1;" d="M 398.46875 211.597656 C 409.71875 211.371094 429.519531 207.8125 433.925781 183.894531 C 437.644531 163.726562 427.628906 135.773438 407.421875 106.257812 C 400.25 95.789062 385.089844 73.664062 360.878906 85.972656 C 360.878906 85.972656 327.683594 75.492188 308.964844 109.824219 C 303.230469 120.34375 303.988281 119.4375 298.050781 156.476562 C 296.148438 168.332031 293.78125 191.058594 302.953125 201.703125 C 309.34375 209.125 321.234375 215.234375 340.074219 214.261719 C 355.449219 213.46875 383.078125 211.910156 398.46875 211.597656 Z M 398.46875 211.597656 "/>
<path style=" stroke:none;fill-rule:nonzero;fill:rgb(91.369629%,36.079407%,92.158508%);fill-opacity:0.298;" d="M 407.082031 167.953125 C 411.882812 157.082031 411.089844 145.546875 406.40625 135.035156 C 401.125 123.179688 396.164062 126.628906 393.695312 138.796875 C 391.917969 147.574219 395.777344 193.539062 407.082031 167.953125 Z M 407.082031 167.953125 "/>
<path style=" stroke:none;fill-rule:nonzero;fill:rgb(91.369629%,36.079407%,92.158508%);fill-opacity:0.298;" d="M 305.535156 166.695312 C 312.4375 167.417969 319.738281 165.546875 324.917969 160.929688 C 327.960938 158.214844 330.164062 154.703125 332.328125 151.242188 C 326.960938 150 321.660156 149.136719 316.378906 147.5625 C 311.003906 145.957031 305.648438 144.183594 300.234375 142.703125 C 299.617188 146.613281 298.90625 151.140625 298.050781 156.476562 C 297.734375 158.445312 297.410156 160.734375 297.121094 163.195312 C 297.273438 163.355469 297.421875 163.515625 297.585938 163.667969 C 299.714844 165.613281 302.667969 166.394531 305.535156 166.695312 Z M 305.535156 166.695312 "/>
<path style=" stroke:none;fill-rule:nonzero;fill:rgb(100%,81.17981%,72.549438%);fill-opacity:1;" d="M 386.042969 175.332031 L 394.324219 239.273438 L 332.09375 240.6875 L 338.996094 183.542969 Z M 386.042969 175.332031 "/>
<path style=" stroke:none;fill-rule:nonzero;fill:rgb(100%,81.17981%,72.549438%);fill-opacity:1;" d="M 335.945312 162.566406 C 335.945312 162.566406 330.914062 150.742188 316.253906 152.65625 C 305.765625 154.023438 298.757812 175.050781 325.652344 185.414062 Z M 335.945312 162.566406 "/>
<path style=" stroke:none;fill-rule:nonzero;fill:rgb(75.689697%,30.979919%,26.669312%);fill-opacity:0.498;" d="M 335.945312 162.566406 C 335.945312 162.566406 330.914062 150.742188 316.253906 152.65625 C 305.765625 154.023438 298.757812 175.050781 325.652344 185.414062 Z M 335.945312 162.566406 "/>
<path style=" stroke:none;fill-rule:nonzero;fill:rgb(91.369629%,36.079407%,92.158508%);fill-opacity:1;" d="M 313.839844 188.34375 C 313.800781 188.34375 313.757812 188.335938 313.71875 188.324219 C 311.949219 187.75 310.671875 186 310.296875 183.644531 C 309.816406 180.648438 310.855469 176.519531 314.246094 174.042969 C 314.417969 173.917969 314.664062 173.953125 314.792969 174.128906 C 314.917969 174.304688 314.882812 174.546875 314.707031 174.675781 C 311.582031 176.957031 310.625 180.761719 311.066406 183.519531 C 311.394531 185.582031 312.476562 187.097656 313.960938 187.578125 C 314.164062 187.648438 314.277344 187.867188 314.210938 188.070312 C 314.15625 188.238281 314.003906 188.34375 313.839844 188.34375 Z M 313.839844 188.34375 "/>
<path style=" stroke:none;fill-rule:nonzero;fill:rgb(18.03894%,6.269836%,25.878906%);fill-opacity:1;" d="M 372.050781 194.054688 C 374.402344 188.445312 338.996094 183.542969 338.996094 183.542969 L 333.601562 213.113281 L 335.277344 214.339844 L 334.359375 221.9375 C 350.539062 221.984375 364.609375 211.804688 372.050781 194.054688 Z M 372.050781 194.054688 "/>
<path style=" stroke:none;fill-rule:nonzero;fill:rgb(91.369629%,36.079407%,92.158508%);fill-opacity:1;" d="M 394.8125 196.699219 C 394.476562 196.699219 394.132812 196.640625 393.78125 196.519531 C 393.578125 196.445312 393.46875 196.222656 393.539062 196.019531 C 393.613281 195.816406 393.835938 195.710938 394.039062 195.78125 C 395.222656 196.195312 396.011719 195.625 396.460938 195.070312 C 398.023438 193.148438 398.09375 188.457031 395.136719 183.558594 C 395.027344 183.375 395.085938 183.136719 395.269531 183.023438 C 395.453125 182.914062 395.695312 182.972656 395.808594 183.15625 C 398.976562 188.417969 398.84375 193.378906 397.066406 195.5625 C 396.460938 196.3125 395.671875 196.699219 394.8125 196.699219 Z M 394.8125 196.699219 "/>
<path style=" stroke:none;fill-rule:nonzero;fill:rgb(100%,81.17981%,72.549438%);fill-opacity:1;" d="M 318.886719 116.644531 C 318.886719 116.644531 314.019531 160.609375 312.726562 176.289062 C 311.433594 192.019531 317.558594 211.226562 341.308594 211.753906 C 359.335938 212.152344 378.101562 198.339844 393.023438 178.929688 L 400.105469 122.121094 Z M 318.886719 116.644531 "/>
<path style=" stroke:none;fill-rule:nonzero;fill:rgb(100%,81.17981%,72.549438%);fill-opacity:1;" d="M 377.507812 166.070312 C 377.507812 166.070312 382.542969 154.246094 397.203125 156.160156 C 407.6875 157.527344 414.699219 178.554688 387.804688 188.921875 Z M 377.507812 166.070312 "/>
<path style=" stroke:none;fill-rule:nonzero;fill:rgb(75.689697%,30.979919%,26.669312%);fill-opacity:0.298;" d="M 404.332031 154.429688 L 400.105469 122.121094 L 318.886719 116.644531 C 318.886719 116.644531 301.710938 165.011719 314.042969 162.285156 C 320.671875 160.816406 334.613281 138.097656 337.015625 131.746094 C 339.875 141.140625 346.855469 157.855469 354.566406 163.9375 C 360.105469 168.304688 366.003906 172.511719 372.808594 174.378906 C 380.957031 176.609375 390.835938 176.910156 397.5 171.714844 C 402.683594 167.675781 404.761719 154.464844 404.332031 154.429688 Z M 404.332031 154.429688 "/>
<path style=" stroke:none;fill-rule:nonzero;fill:rgb(18.03894%,6.269836%,25.878906%);fill-opacity:1;" d="M 396.128906 173.265625 L 388.488281 173.265625 C 388.347656 173.265625 388.21875 173.191406 388.148438 173.070312 C 388.078125 172.949219 388.078125 172.800781 388.148438 172.679688 L 394.125 162.261719 C 394.230469 162.074219 394.46875 162.011719 394.65625 162.117188 C 394.84375 162.226562 394.910156 162.464844 394.800781 162.652344 L 389.160156 172.484375 L 396.128906 172.484375 C 396.347656 172.484375 396.519531 172.660156 396.519531 172.875 C 396.519531 173.089844 396.347656 173.265625 396.128906 173.265625 Z M 396.128906 173.265625 "/>
<path style=" stroke:none;fill-rule:nonzero;fill:rgb(100%,81.17981%,72.549438%);fill-opacity:1;" d="M 323.222656 239.203125 C 303.683594 249.546875 289.917969 257.078125 280.019531 263.203125 C 312.515625 291.488281 358.625 302.503906 402.582031 288.21875 C 422.753906 281.664062 440.132812 270.515625 453.992188 256.335938 C 435.542969 245.195312 416.183594 239.050781 401.203125 234.148438 C 370.082031 223.96875 353.21875 223.320312 323.222656 239.203125 Z M 323.222656 239.203125 "/>
<path style=" stroke:none;fill-rule:nonzero;fill:rgb(75.689697%,30.979919%,26.669312%);fill-opacity:0.298;" d="M 396.371094 232.613281 C 386.125 246.433594 375.609375 260.066406 363.667969 272.433594 C 361.996094 274.164062 359.917969 276.007812 357.535156 275.675781 C 355.839844 275.441406 354.515625 274.148438 353.328125 272.917969 C 342.957031 262.144531 333.386719 250.605469 324.6875 238.441406 C 324.199219 238.695312 323.71875 238.941406 323.222656 239.203125 C 303.683594 249.546875 289.917969 257.078125 280.019531 263.203125 C 312.515625 291.488281 358.625 302.503906 402.582031 288.21875 C 422.753906 281.664062 440.132812 270.515625 453.992188 256.335938 C 435.542969 245.195312 416.183594 239.050781 401.203125 234.148438 C 399.550781 233.609375 397.945312 233.101562 396.371094 232.613281 Z M 396.371094 232.613281 "/>
<path style=" stroke:none;fill-rule:nonzero;fill:rgb(18.03894%,6.269836%,25.878906%);fill-opacity:1;" d="M 347.164062 191.652344 C 345.164062 191.652344 343.695312 191.214844 343.585938 191.183594 C 343.378906 191.121094 343.261719 190.902344 343.328125 190.695312 C 343.390625 190.488281 343.609375 190.375 343.8125 190.433594 C 343.859375 190.449219 348.359375 191.773438 352.234375 189.664062 C 354.585938 188.386719 356.25 186.113281 357.175781 182.90625 C 357.234375 182.699219 357.453125 182.578125 357.660156 182.636719 C 357.867188 182.699219 357.984375 182.914062 357.925781 183.121094 C 356.9375 186.542969 355.148438 188.976562 352.601562 190.355469 C 350.738281 191.367188 348.777344 191.652344 347.164062 191.652344 Z M 347.164062 191.652344 "/>
<path style=" stroke:none;fill-rule:nonzero;fill:rgb(18.03894%,6.269836%,25.878906%);fill-opacity:1;" d="M 336.316406 184.28125 C 336.230469 184.28125 336.140625 184.25 336.070312 184.191406 L 330.851562 179.917969 C 330.6875 179.78125 330.660156 179.542969 330.792969 179.375 C 336.796875 171.722656 337.308594 159.398438 337.3125 159.277344 C 337.320312 159.066406 337.492188 158.898438 337.703125 158.898438 C 337.707031 158.898438 337.710938 158.898438 337.714844 158.898438 C 337.929688 158.90625 338.097656 159.089844 338.09375 159.304688 C 338.085938 159.429688 337.582031 171.6875 331.640625 179.554688 L 336.566406 183.585938 C 336.730469 183.722656 336.757812 183.972656 336.621094 184.136719 C 336.542969 184.230469 336.429688 184.28125 336.316406 184.28125 Z M 336.316406 184.28125 "/>
<path style=" stroke:none;fill-rule:nonzero;fill:rgb(18.03894%,6.269836%,25.878906%);fill-opacity:1;" d="M 363.234375 159.679688 C 363.128906 159.679688 363.027344 159.640625 362.949219 159.558594 C 357.429688 153.753906 352.601562 157.4375 352.402344 157.597656 C 352.230469 157.730469 351.984375 157.699219 351.851562 157.53125 C 351.71875 157.363281 351.746094 157.117188 351.914062 156.984375 C 351.96875 156.941406 357.496094 152.683594 363.515625 159.019531 C 363.664062 159.175781 363.660156 159.425781 363.503906 159.574219 C 363.425781 159.644531 363.328125 159.679688 363.234375 159.679688 Z M 363.234375 159.679688 "/>
<path style=" stroke:none;fill-rule:nonzero;fill:rgb(18.03894%,6.269836%,25.878906%);fill-opacity:1;" d="M 319.246094 157.996094 C 319.125 157.996094 319.007812 157.941406 318.933594 157.839844 C 318.800781 157.667969 318.835938 157.421875 319.011719 157.292969 C 324.152344 153.445312 327.949219 157.296875 327.984375 157.335938 C 328.136719 157.492188 328.128906 157.738281 327.976562 157.886719 C 327.820312 158.035156 327.570312 158.03125 327.421875 157.875 C 327.285156 157.738281 324.054688 154.496094 319.476562 157.917969 C 319.40625 157.96875 319.324219 157.996094 319.246094 157.996094 Z M 319.246094 157.996094 "/>
<path style=" stroke:none;fill-rule:nonzero;fill:rgb(18.03894%,6.269836%,25.878906%);fill-opacity:1;" d="M 377.507812 166.070312 C 354.046875 163.367188 345.347656 142.976562 337.160156 127.871094 C 337.160156 127.871094 314.929688 170.671875 300.011719 150.625 C 293.019531 141.230469 304.140625 113.738281 312.125 104.636719 C 333.25 80.542969 383.757812 97.277344 400.34375 111.921875 C 404.300781 115.417969 408.871094 125.488281 410.207031 130.597656 C 413.257812 142.265625 411.210938 169.945312 377.507812 166.070312 Z M 377.507812 166.070312 "/>
<path style=" stroke:none;fill-rule:nonzero;fill:rgb(75.689697%,30.979919%,26.669312%);fill-opacity:1;" d="M 400.648438 233.972656 L 357.230469 294.296875 L 323.941406 238.828125 C 323.699219 238.957031 323.464844 239.074219 323.222656 239.203125 C 303.683594 249.546875 289.917969 257.078125 280.019531 263.203125 C 312.515625 291.488281 358.625 302.503906 402.582031 288.21875 C 422.753906 281.664062 440.132812 270.515625 453.992188 256.335938 C 435.542969 245.195312 416.183594 239.050781 401.199219 234.148438 C 401.015625 234.085938 400.835938 234.03125 400.648438 233.972656 Z M 400.648438 233.972656 "/>
<path style=" stroke:none;fill-rule:nonzero;fill:rgb(18.03894%,6.269836%,25.878906%);fill-opacity:1;" d="M 376.882812 171.160156 C 370.628906 171.160156 364.195312 168.945312 358.261719 163.617188 C 350.253906 156.433594 346.453125 147.125 342.78125 138.125 C 340.945312 133.628906 339.046875 128.980469 336.644531 124.632812 C 336.542969 124.445312 336.609375 124.207031 336.796875 124.101562 C 336.988281 124 337.226562 124.066406 337.328125 124.257812 C 339.753906 128.640625 341.660156 133.3125 343.503906 137.828125 C 347.144531 146.75 350.910156 155.972656 358.78125 163.035156 C 372.628906 175.457031 389.273438 170.484375 399.628906 160.046875 C 399.78125 159.894531 400.03125 159.890625 400.179688 160.042969 C 400.335938 160.195312 400.335938 160.441406 400.183594 160.597656 C 393.996094 166.832031 385.613281 171.160156 376.882812 171.160156 Z M 376.882812 171.160156 "/>
<path style=" stroke:none;fill-rule:nonzero;fill:rgb(18.03894%,6.269836%,25.878906%);fill-opacity:1;" d="M 307.566406 161.042969 C 306.53125 161.042969 305.472656 160.890625 304.402344 160.558594 C 300.859375 159.476562 298.375 157.292969 297.015625 154.066406 C 292.53125 143.421875 301.414062 125.214844 303.242188 121.671875 C 303.339844 121.480469 303.578125 121.40625 303.769531 121.503906 C 303.960938 121.601562 304.035156 121.835938 303.9375 122.03125 C 298.96875 131.664062 294.363281 145.757812 297.738281 153.761719 C 299.003906 156.765625 301.320312 158.800781 304.628906 159.8125 C 315.070312 163.007812 323.914062 148.265625 329.769531 138.511719 C 330.910156 136.609375 331.988281 134.816406 332.921875 133.417969 C 333.042969 133.238281 333.289062 133.195312 333.464844 133.3125 C 333.644531 133.433594 333.691406 133.675781 333.574219 133.855469 C 332.648438 135.234375 331.625 136.941406 330.441406 138.914062 C 325.042969 147.902344 317.148438 161.042969 307.566406 161.042969 Z M 307.566406 161.042969 "/>
<path style=" stroke:none;fill-rule:nonzero;fill:rgb(18.03894%,6.269836%,25.878906%);fill-opacity:1;" d="M 427.445312 194.445312 C 427.351562 194.445312 427.253906 194.410156 427.179688 194.339844 C 427.019531 194.195312 427.011719 193.945312 427.160156 193.789062 C 431.652344 188.980469 433.925781 181.636719 433.921875 171.953125 C 433.910156 156.609375 429.183594 139.886719 419.46875 120.835938 C 414.417969 110.925781 407.183594 98.550781 395.976562 90.742188 C 386.441406 84.097656 371.570312 80.421875 359.84375 87.195312 C 359.660156 87.304688 359.417969 87.242188 359.308594 87.054688 C 359.199219 86.867188 359.265625 86.628906 359.453125 86.519531 C 371.476562 79.578125 386.683594 83.3125 396.421875 90.101562 C 407.773438 98.007812 415.074219 110.488281 420.167969 120.480469 C 429.9375 139.644531 434.691406 156.480469 434.703125 171.953125 C 434.710938 181.839844 432.363281 189.367188 427.730469 194.324219 C 427.65625 194.40625 427.550781 194.445312 427.445312 194.445312 Z M 427.445312 194.445312 "/>
<path style=" stroke:none;fill-rule:nonzero;fill:rgb(91.369629%,36.079407%,92.158508%);fill-opacity:1;" d="M 341.367188 120.355469 C 341.328125 120.355469 341.285156 120.351562 341.242188 120.335938 C 341.039062 120.265625 340.929688 120.042969 341 119.839844 C 342.816406 114.492188 345.023438 109.222656 347.5625 104.171875 C 350.109375 99.105469 353.40625 93.390625 358.546875 89.425781 C 358.71875 89.296875 358.964844 89.328125 359.09375 89.496094 C 359.226562 89.667969 359.195312 89.914062 359.023438 90.046875 C 354.007812 93.914062 350.765625 99.535156 348.257812 104.523438 C 345.738281 109.539062 343.546875 114.777344 341.738281 120.089844 C 341.683594 120.253906 341.53125 120.355469 341.367188 120.355469 Z M 341.367188 120.355469 "/>
<path style=" stroke:none;fill-rule:nonzero;fill:rgb(91.369629%,36.079407%,92.158508%);fill-opacity:1;" d="M 393.910156 196.539062 C 393.859375 196.539062 393.8125 196.53125 393.761719 196.511719 C 392.585938 196.03125 391.59375 194.941406 390.972656 193.4375 C 390.234375 191.644531 389.390625 187.6875 392.085938 181.320312 C 392.167969 181.121094 392.398438 181.03125 392.597656 181.113281 C 392.796875 181.199219 392.890625 181.425781 392.804688 181.625 C 390.222656 187.730469 391 191.460938 391.695312 193.140625 C 392.238281 194.445312 393.074219 195.386719 394.058594 195.789062 C 394.257812 195.867188 394.351562 196.097656 394.273438 196.296875 C 394.210938 196.449219 394.0625 196.539062 393.910156 196.539062 Z M 393.910156 196.539062 "/>
<path style=" stroke:none;fill-rule:nonzero;fill:rgb(100%,81.17981%,72.549438%);fill-opacity:1;" d="M 326.484375 288.878906 C 326.492188 288.90625 326.496094 288.929688 326.503906 288.953125 C 326.183594 288.855469 325.859375 288.765625 325.539062 288.664062 C 325.296875 288.203125 324.964844 287.78125 324.640625 287.367188 C 323.40625 285.785156 322.15625 284.335938 320.476562 283.925781 C 319.046875 283.574219 317.34375 284.078125 315.972656 285.230469 C 315.699219 285.121094 315.429688 285.011719 315.160156 284.898438 C 315.175781 284.886719 315.1875 284.867188 315.203125 284.851562 C 316.800781 283.378906 318.890625 282.730469 320.664062 283.164062 C 322.746094 283.675781 324.195312 285.53125 325.253906 286.882812 C 325.703125 287.457031 326.214844 288.109375 326.484375 288.878906 Z M 445.945312 251.804688 C 442.90625 253.023438 439.996094 254.738281 437.144531 256.421875 L 436.46875 256.820312 C 431.367188 259.824219 425.40625 262.960938 419.296875 262.148438 C 417.304688 261.886719 415.808594 261.214844 414.851562 260.152344 C 413.738281 258.917969 413.273438 256.957031 413.609375 254.914062 C 414.121094 251.824219 416.277344 248.816406 419.53125 246.667969 C 421.859375 245.125 424.488281 244.113281 427.132812 243.230469 C 426.757812 243.082031 426.382812 242.9375 426.007812 242.789062 C 423.613281 243.621094 421.242188 244.597656 419.097656 246.015625 C 415.664062 248.285156 413.382812 251.480469 412.839844 254.785156 C 412.457031 257.097656 412.980469 259.246094 414.273438 260.675781 C 415.359375 261.878906 417.011719 262.632812 419.191406 262.921875 C 419.898438 263.019531 420.597656 263.0625 421.296875 263.0625 C 426.898438 263.0625 432.230469 260.226562 436.863281 257.496094 L 437.542969 257.097656 C 440.5625 255.3125 443.644531 253.496094 446.863281 252.289062 C 446.558594 252.128906 446.253906 251.964844 445.945312 251.804688 Z M 346.96875 278.386719 C 341.433594 277.542969 336.914062 274.226562 335.449219 269.933594 C 334.445312 266.976562 334.808594 263.457031 336.445312 260.273438 C 336.5 260.167969 336.566406 260.0625 336.621094 259.960938 L 336.160156 259.1875 C 336.019531 259.429688 335.878906 259.667969 335.753906 259.914062 C 334.015625 263.285156 333.636719 267.03125 334.710938 270.1875 C 336.265625 274.75 341.03125 278.273438 346.851562 279.15625 C 347.3125 279.226562 347.773438 279.269531 348.238281 279.308594 L 347.730469 278.464844 C 347.476562 278.4375 347.222656 278.421875 346.96875 278.386719 Z M 415.027344 279.257812 C 410.796875 279.148438 406.425781 279.039062 402.1875 279.765625 C 401.191406 279.9375 400.148438 280.171875 399.25 280.710938 C 398.253906 281.3125 397.421875 282.28125 396.636719 283.765625 C 395.53125 285.847656 394.914062 288.148438 394.742188 290.484375 C 395.007812 290.417969 395.273438 290.351562 395.535156 290.28125 C 395.726562 288.140625 396.3125 286.039062 397.328125 284.132812 C 398.042969 282.78125 398.78125 281.90625 399.652344 281.382812 C 400.441406 280.90625 401.398438 280.695312 402.316406 280.535156 C 406.480469 279.820312 410.8125 279.933594 415.007812 280.035156 C 417.308594 280.09375 419.652344 280.152344 421.996094 280.074219 C 422.539062 279.792969 423.082031 279.507812 423.625 279.214844 C 420.757812 279.398438 417.859375 279.328125 415.027344 279.257812 Z M 304.679688 249.128906 C 304.449219 249.253906 304.21875 249.378906 303.992188 249.5 C 304.644531 250.980469 305.042969 252.621094 305.109375 254.332031 C 305.15625 255.433594 305.03125 257.410156 303.714844 258.269531 C 302.960938 258.757812 301.96875 258.792969 301.089844 258.828125 C 296.863281 258.980469 292.265625 259.140625 287.777344 258.566406 C 287.410156 258.78125 287.054688 258.988281 286.695312 259.199219 C 289.433594 259.617188 292.214844 259.753906 294.941406 259.753906 C 297.050781 259.753906 299.125 259.679688 301.117188 259.605469 C 302.046875 259.574219 303.207031 259.53125 304.140625 258.925781 C 305.703125 257.910156 305.953125 255.851562 305.894531 254.300781 C 305.820312 252.46875 305.382812 250.710938 304.679688 249.128906 Z M 304.679688 249.128906 "/>
<path style=" stroke:none;fill-rule:nonzero;fill:rgb(18.03894%,6.269836%,25.878906%);fill-opacity:0.2;" d="M 414.128906 269.511719 C 397.179688 286.578125 372.214844 295.324219 348.316406 292.566406 C 335.050781 291.035156 322.0625 286.035156 311.8125 277.480469 C 304.445312 271.332031 298.589844 263.292969 295.191406 254.351562 C 289.304688 257.640625 284.304688 260.554688 280.019531 263.203125 C 312.515625 291.488281 358.625 302.503906 402.582031 288.21875 C 422.75 281.664062 440.128906 270.519531 453.988281 256.339844 C 446.667969 251.921875 439.207031 248.285156 431.933594 245.207031 C 426.875 253.972656 421.238281 262.351562 414.128906 269.511719 Z M 414.128906 269.511719 "/>
<path style=" stroke:none;fill-rule:nonzero;fill:rgb(18.03894%,6.269836%,25.878906%);fill-opacity:1;" d="M 411.707031 237.734375 L 371.609375 294.1875 C 371.277344 294.210938 370.941406 294.230469 370.609375 294.25 L 411.070312 237.285156 C 411.195312 237.105469 411.4375 237.066406 411.613281 237.191406 C 411.789062 237.316406 411.832031 237.558594 411.707031 237.734375 Z M 315.183594 243.03125 C 314.996094 243.132812 314.925781 243.371094 315.027344 243.558594 L 341.714844 292.582031 C 342.039062 292.636719 342.367188 292.695312 342.695312 292.75 L 315.714844 243.1875 C 315.613281 242.996094 315.378906 242.925781 315.183594 243.03125 Z M 315.183594 243.03125 "/>
<path style=" stroke:none;fill-rule:nonzero;fill:rgb(100%,80.389404%,20.388794%);fill-opacity:1;" d="M 54.773438 400.289062 C 71.890625 422.160156 96.273438 438.585938 125.40625 445.472656 C 193.554688 461.582031 261.863281 419.414062 277.980469 351.289062 C 294.09375 283.164062 251.910156 214.878906 183.761719 198.769531 C 115.613281 182.660156 47.304688 224.828125 31.1875 292.953125 C 24.300781 322.078125 28.070312 351.226562 39.964844 376.320312 L 2.011719 416.304688 Z M 54.773438 400.289062 "/>
<path style=" stroke:none;fill-rule:nonzero;fill:rgb(18.03894%,6.269836%,25.878906%);fill-opacity:1;" d="M 116.6875 325.867188 C 116.679688 325.867188 116.667969 325.867188 116.65625 325.867188 C 109.617188 325.300781 103.058594 321.035156 99.949219 315.007812 C 96.726562 308.753906 97.429688 300.671875 101.664062 295.351562 C 102.019531 294.90625 102.421875 294.457031 102.957031 294.183594 C 103.148438 294.082031 103.386719 294.160156 103.484375 294.351562 C 103.582031 294.542969 103.507812 294.78125 103.3125 294.878906 C 102.933594 295.074219 102.625 295.402344 102.277344 295.839844 C 98.226562 300.925781 97.554688 308.660156 100.644531 314.648438 C 103.632812 320.445312 109.941406 324.542969 116.71875 325.085938 C 116.933594 325.105469 117.097656 325.292969 117.078125 325.507812 C 117.0625 325.710938 116.890625 325.867188 116.6875 325.867188 Z M 116.6875 325.867188 "/>
<path style=" stroke:none;fill-rule:nonzero;fill:rgb(91.369629%,36.079407%,92.158508%);fill-opacity:1;" d="M 24.273438 392.851562 C 25.125 398.050781 26.652344 403.261719 28.761719 408.183594 L 28.015625 408.414062 C 25.976562 403.636719 24.480469 398.59375 23.609375 393.550781 Z M 101.644531 379.328125 C 97.484375 376.371094 93.730469 376.382812 89.769531 376.390625 C 87.296875 376.398438 84.738281 376.402344 82.023438 375.632812 C 76.136719 373.960938 75.410156 369.003906 74.570312 363.261719 C 73.835938 358.230469 73.074219 353.03125 68.664062 349.488281 C 62.402344 344.464844 52.914062 343.363281 42.621094 346.476562 C 38.472656 347.730469 34.632812 349.550781 31.277344 351.757812 C 31.34375 352.023438 31.414062 352.285156 31.480469 352.550781 C 34.820312 350.320312 38.675781 348.484375 42.847656 347.222656 C 52.738281 344.234375 62.207031 345.308594 68.175781 350.097656 C 72.347656 353.445312 73.085938 358.496094 73.796875 363.375 C 74.640625 369.132812 75.4375 374.574219 81.808594 376.382812 C 84.628906 377.183594 87.234375 377.183594 89.773438 377.171875 C 93.632812 377.167969 97.238281 377.152344 101.1875 379.964844 C 105.792969 383.242188 109.027344 388.675781 110.066406 394.878906 C 111.5625 403.808594 108.460938 413.121094 101.335938 421.089844 C 97.925781 424.90625 93.796875 428.195312 89.324219 430.816406 C 89.578125 430.96875 89.824219 431.132812 90.078125 431.28125 C 94.484375 428.65625 98.546875 425.382812 101.917969 421.613281 C 109.203125 413.460938 112.371094 403.917969 110.835938 394.75 C 109.765625 388.34375 106.414062 382.722656 101.644531 379.328125 Z M 199.53125 222.175781 C 198.890625 223.253906 197.816406 224.136719 196.246094 224.867188 C 194.332031 225.753906 192.214844 226.199219 190.101562 226.199219 C 188.1875 226.199219 186.277344 225.835938 184.519531 225.105469 C 182.386719 224.214844 180.492188 222.832031 178.664062 221.492188 C 176.652344 220.015625 174.574219 218.492188 172.214844 217.6875 C 168.746094 216.507812 165.023438 217.140625 161.429688 217.75 C 157.75 218.375 153.945312 219.023438 150.382812 217.738281 C 147.683594 216.765625 145.964844 215.039062 145.542969 212.878906 C 145.078125 210.511719 146.191406 207.914062 148.597656 205.75 C 156.566406 198.585938 168.171875 203.21875 178.410156 207.308594 C 181.898438 208.699219 185.191406 210.015625 188.019531 210.710938 C 188.546875 210.839844 189.082031 210.960938 189.621094 211.082031 C 192.105469 211.648438 194.675781 212.234375 196.816406 213.707031 C 199.457031 215.523438 201.242188 219.277344 199.53125 222.175781 Z M 196.375 214.351562 C 194.359375 212.960938 191.863281 212.394531 189.449219 211.84375 C 188.90625 211.722656 188.367188 211.597656 187.832031 211.46875 C 184.953125 210.761719 181.632812 209.4375 178.121094 208.03125 C 168.09375 204.03125 156.726562 199.492188 149.121094 206.332031 C 146.925781 208.308594 145.898438 210.640625 146.308594 212.730469 C 146.675781 214.609375 148.21875 216.125 150.648438 217.003906 C 154.019531 218.21875 157.554688 217.617188 161.296875 216.980469 C 163.453125 216.613281 165.648438 216.238281 167.835938 216.238281 C 169.394531 216.238281 170.945312 216.429688 172.46875 216.949219 C 174.9375 217.789062 177.066406 219.351562 179.128906 220.859375 C 180.917969 222.171875 182.773438 223.53125 184.820312 224.382812 C 188.324219 225.839844 192.472656 225.757812 195.914062 224.15625 C 197.339844 223.496094 198.300781 222.71875 198.855469 221.777344 C 200.296875 219.347656 198.734375 215.972656 196.375 214.351562 Z M 245.980469 365.359375 C 245.617188 362.902344 246.246094 360.675781 246.855469 358.523438 C 247.386719 356.644531 247.933594 354.703125 247.804688 352.648438 C 247.601562 349.371094 244.699219 347.40625 241.894531 345.503906 C 239.492188 343.875 237.226562 342.339844 237.039062 340.179688 C 236.886719 338.46875 238.046875 336.445312 240.578125 333.996094 C 242.332031 332.300781 244.589844 331.316406 246.773438 330.363281 C 251.101562 328.472656 255.1875 326.691406 252.242188 319.671875 C 250.394531 315.269531 246.710938 313.074219 243.148438 310.953125 C 239.0625 308.519531 235.199219 306.21875 233.742188 300.816406 C 231.285156 291.71875 234.808594 279.175781 241.601562 272.851562 C 249.984375 265.046875 261.152344 267.109375 270.5625 270.890625 C 270.414062 270.550781 270.257812 270.210938 270.105469 269.867188 C 260.636719 266.191406 249.535156 264.398438 241.066406 272.28125 C 234.085938 278.78125 230.460938 291.671875 232.984375 301.019531 C 234.527344 306.726562 238.707031 309.21875 242.75 311.625 C 246.363281 313.777344 249.773438 315.808594 251.523438 319.972656 C 254.167969 326.28125 250.933594 327.695312 246.460938 329.644531 C 244.316406 330.582031 241.890625 331.640625 240.035156 333.433594 C 237.324219 336.058594 236.089844 338.289062 236.257812 340.25 C 236.480469 342.777344 238.894531 344.417969 241.457031 346.152344 C 244.105469 347.945312 246.847656 349.800781 247.027344 352.699219 C 247.144531 354.621094 246.636719 356.414062 246.101562 358.3125 C 245.472656 360.542969 244.820312 362.851562 245.207031 365.472656 C 246 370.886719 248.972656 375.71875 253.792969 379.445312 C 257.078125 381.984375 260.910156 383.648438 265.027344 384.441406 C 265.164062 384.207031 265.296875 383.96875 265.429688 383.730469 C 261.332031 382.980469 257.527344 381.339844 254.273438 378.824219 C 249.613281 375.226562 246.746094 370.570312 245.980469 365.359375 Z M 44.320312 294.652344 C 56.34375 292.605469 63.96875 284.914062 64.21875 274.574219 C 64.285156 271.800781 64.082031 269.148438 63.886719 266.585938 C 63.273438 258.621094 62.746094 251.738281 70.757812 245.628906 C 73.21875 243.753906 76.332031 242.398438 79.34375 241.085938 C 84.980469 238.628906 90.808594 236.089844 93.25 230 C 95.609375 224.117188 92.984375 218.164062 89.171875 215.324219 C 88.703125 214.976562 88.222656 214.675781 87.730469 214.421875 C 87.472656 214.582031 87.214844 214.75 86.953125 214.914062 C 87.550781 215.1875 88.136719 215.527344 88.707031 215.953125 C 92.191406 218.546875 94.714844 224.25 92.523438 229.707031 C 90.203125 235.5 84.523438 237.976562 79.03125 240.367188 C 75.976562 241.699219 72.816406 243.074219 70.285156 245.007812 C 61.933594 251.375 62.476562 258.453125 63.105469 266.644531 C 63.300781 269.191406 63.503906 271.820312 63.4375 274.554688 C 63.152344 286.4375 53.308594 292.332031 44.191406 293.882812 C 39.425781 294.691406 34.988281 293.925781 31.496094 291.730469 C 31.429688 291.992188 31.363281 292.25 31.296875 292.511719 C 33.960938 294.128906 37.121094 294.976562 40.542969 294.976562 C 41.773438 294.976562 43.035156 294.871094 44.320312 294.652344 Z M 44.320312 294.652344 "/>
<path style=" stroke:none;fill-rule:nonzero;fill:rgb(18.03894%,6.269836%,25.878906%);fill-opacity:1;" d="M 124.070312 364.539062 C 126.929688 353.199219 177.152344 351.777344 191.628906 367.40625 C 203.578125 380.308594 169.574219 382.367188 161.035156 382.644531 C 150.75 382.976562 119.394531 383.066406 124.070312 364.539062 Z M 124.070312 364.539062 "/>
<path style=" stroke:none;fill-rule:nonzero;fill:rgb(75.689697%,30.979919%,26.669312%);fill-opacity:1;" d="M 130.175781 377.503906 C 111.511719 383.609375 85.390625 391.835938 64.136719 410.9375 C 80.332031 427.453125 101.222656 439.757812 125.40625 445.472656 C 171.359375 456.335938 217.386719 440.695312 247.433594 408.46875 C 238.25 402.109375 224.0625 394.226562 201.167969 382.105469 C 173.859375 367.644531 158.507812 368.234375 130.175781 377.503906 Z M 130.175781 377.503906 "/>
<path style=" stroke:none;fill-rule:nonzero;fill:rgb(75.689697%,30.979919%,26.669312%);fill-opacity:1;" d="M 135.523438 307.136719 L 129.800781 382.425781 L 190.792969 383.808594 L 184.976562 315.644531 Z M 135.523438 307.136719 "/>
<path style=" stroke:none;fill-rule:nonzero;fill:rgb(18.03894%,6.269836%,25.878906%);fill-opacity:1;" d="M 153.871094 358.417969 C 153.871094 358.417969 163.347656 374.8125 190.140625 375.214844 L 189.117188 364.179688 C 189.117188 364.179688 170.117188 364.378906 153.871094 358.417969 Z M 153.871094 358.417969 "/>
<path style=" stroke:none;fill-rule:nonzero;fill:rgb(75.689697%,30.979919%,26.669312%);fill-opacity:1;" d="M 186.71875 295.894531 C 186.71875 295.894531 197.328125 286.878906 208.320312 296.316406 C 211.878906 299.371094 214.382812 307.804688 209.257812 315.03125 C 206.335938 319.15625 197.859375 322.222656 188.082031 320.324219 Z M 186.71875 295.894531 "/>
<path style=" stroke:none;fill-rule:nonzero;fill:rgb(18.03894%,6.269836%,25.878906%);fill-opacity:0.498;" d="M 186.71875 295.894531 C 186.71875 295.894531 197.328125 286.878906 208.320312 296.316406 C 211.878906 299.371094 214.382812 307.804688 209.257812 315.03125 C 206.335938 319.15625 197.859375 322.222656 188.082031 320.324219 Z M 186.71875 295.894531 "/>
<path style=" stroke:none;fill-rule:nonzero;fill:rgb(75.689697%,30.979919%,26.669312%);fill-opacity:1;" d="M 186.875 267.585938 C 186.875 267.585938 204.039062 307.402344 209.742188 321.726562 C 215.464844 336.097656 215.226562 355.855469 193.117188 363.152344 C 176.335938 368.691406 152.011719 360.246094 132.460938 346.328125 L 107.230469 284.617188 Z M 186.875 267.585938 "/>
<path style=" stroke:none;fill-rule:nonzero;fill:rgb(18.03894%,6.269836%,25.878906%);fill-opacity:1;" d="M 113.378906 325.347656 C 106.703125 323.761719 94.273438 310.542969 102.285156 297.785156 C 102.285156 297.785156 94.324219 283.128906 103.886719 271.730469 C 106.210938 268.960938 111.136719 266.1875 117.1875 266.042969 C 117.1875 266.042969 114.242188 247.996094 134.84375 246.839844 C 134.84375 246.839844 150.152344 228.542969 169.597656 233.996094 C 169.597656 233.996094 182.53125 238.128906 181.554688 250.65625 C 181.554688 250.65625 193.734375 250.621094 201.738281 262.714844 C 201.738281 262.714844 208.367188 273.390625 202.039062 283.679688 C 202.039062 283.679688 206.566406 296.726562 204.152344 308.179688 C 204.152344 308.179688 197.328125 292.027344 194.410156 285.164062 C 192.453125 280.5625 188.566406 274.632812 177.265625 272.007812 C 177.265625 272.007812 189.578125 287.808594 151.566406 284.160156 C 151.566406 284.160156 153.175781 298.976562 135.433594 296.410156 C 135.433594 296.410156 141.253906 303.695312 143.429688 307.765625 C 145.84375 312.289062 150.589844 327.832031 150.589844 327.832031 L 143.234375 332.230469 L 140.417969 323.1875 C 140.417969 323.1875 123.625 327.777344 113.378906 325.347656 Z M 113.378906 325.347656 "/>
<path style=" stroke:none;fill-rule:nonzero;fill:rgb(75.689697%,30.979919%,26.669312%);fill-opacity:1;" d="M 140.417969 323.1875 C 140.417969 323.1875 132.65625 311.628906 119.507812 317.726562 C 115.257812 319.695312 110.554688 327.132812 113.519531 335.480469 C 115.210938 340.246094 122.535156 345.496094 132.460938 346.328125 Z M 140.417969 323.1875 "/>
<path style=" stroke:none;fill-rule:nonzero;fill:rgb(18.03894%,6.269836%,25.878906%);fill-opacity:1;" d="M 123.964844 333.917969 C 123.785156 333.917969 123.621094 333.789062 123.582031 333.609375 C 123.539062 333.394531 123.671875 333.1875 123.882812 333.144531 L 130.550781 331.71875 L 123.136719 323.460938 C 122.992188 323.300781 123.003906 323.050781 123.167969 322.90625 C 123.328125 322.765625 123.574219 322.777344 123.71875 322.9375 L 131.582031 331.699219 C 131.675781 331.800781 131.707031 331.949219 131.660156 332.078125 C 131.617188 332.210938 131.507812 332.3125 131.371094 332.339844 L 124.046875 333.90625 C 124.019531 333.914062 123.992188 333.917969 123.964844 333.917969 Z M 123.964844 333.917969 "/>
<path style=" stroke:none;fill-rule:nonzero;fill:rgb(18.03894%,6.269836%,25.878906%);fill-opacity:1;" d="M 170.304688 309.855469 C 170.425781 310.273438 170.488281 310.6875 170.5 311.101562 C 170.507812 311.515625 170.460938 311.898438 170.355469 312.25 C 170.253906 312.597656 170.101562 312.886719 169.902344 313.117188 C 169.703125 313.347656 169.46875 313.5 169.203125 313.574219 C 168.9375 313.652344 168.660156 313.644531 168.367188 313.554688 C 168.078125 313.464844 167.792969 313.300781 167.523438 313.058594 C 167.25 312.816406 167.007812 312.519531 166.796875 312.160156 C 166.582031 311.804688 166.417969 311.417969 166.296875 311 C 166.179688 310.582031 166.113281 310.167969 166.105469 309.753906 C 166.097656 309.335938 166.144531 308.957031 166.246094 308.605469 C 166.351562 308.257812 166.503906 307.96875 166.703125 307.738281 C 166.902344 307.507812 167.132812 307.355469 167.398438 307.277344 C 167.664062 307.203125 167.945312 307.210938 168.234375 307.300781 C 168.527344 307.390625 168.808594 307.554688 169.082031 307.796875 C 169.355469 308.039062 169.597656 308.335938 169.808594 308.691406 C 170.019531 309.050781 170.1875 309.4375 170.304688 309.855469 Z M 170.304688 309.855469 "/>
<path style=" stroke:none;fill-rule:nonzero;fill:rgb(18.03894%,6.269836%,25.878906%);fill-opacity:1;" d="M 192.730469 301.363281 C 192.851562 301.78125 192.914062 302.195312 192.921875 302.609375 C 192.929688 303.027344 192.882812 303.40625 192.78125 303.757812 C 192.675781 304.105469 192.527344 304.394531 192.324219 304.625 C 192.125 304.855469 191.894531 305.007812 191.628906 305.085938 C 191.363281 305.160156 191.082031 305.152344 190.792969 305.0625 C 190.5 304.972656 190.21875 304.808594 189.945312 304.566406 C 189.675781 304.324219 189.429688 304.027344 189.21875 303.671875 C 189.007812 303.3125 188.839844 302.925781 188.722656 302.507812 C 188.601562 302.089844 188.539062 301.675781 188.53125 301.261719 C 188.519531 300.84375 188.566406 300.464844 188.671875 300.113281 C 188.773438 299.765625 188.925781 299.476562 189.125 299.246094 C 189.324219 299.015625 189.558594 298.863281 189.824219 298.789062 C 190.089844 298.710938 190.367188 298.71875 190.660156 298.808594 C 190.953125 298.898438 191.234375 299.0625 191.503906 299.304688 C 191.777344 299.546875 192.019531 299.84375 192.234375 300.199219 C 192.445312 300.558594 192.609375 300.945312 192.730469 301.363281 Z M 192.730469 301.363281 "/>
<path style=" stroke:none;fill-rule:nonzero;fill:rgb(18.03894%,6.269836%,25.878906%);fill-opacity:1;" d="M 178.664062 334.1875 C 175.402344 334.1875 171.597656 333.054688 168.226562 329.113281 C 168.085938 328.949219 168.105469 328.703125 168.269531 328.5625 C 168.433594 328.421875 168.683594 328.441406 168.820312 328.605469 C 176.261719 337.3125 185.960938 331.523438 186.058594 331.464844 C 186.242188 331.351562 186.480469 331.410156 186.59375 331.59375 C 186.707031 331.777344 186.648438 332.015625 186.464844 332.128906 C 186.40625 332.167969 183.023438 334.1875 178.664062 334.1875 Z M 178.664062 334.1875 "/>
<path style=" stroke:none;fill-rule:nonzero;fill:rgb(18.03894%,6.269836%,25.878906%);fill-opacity:1;" d="M 190.894531 318.621094 C 190.789062 318.621094 190.683594 318.582031 190.609375 318.496094 C 190.460938 318.335938 190.472656 318.089844 190.632812 317.945312 L 194.035156 314.8125 C 182.863281 309.238281 183.355469 297.847656 183.363281 297.730469 C 183.375 297.515625 183.554688 297.363281 183.777344 297.363281 C 183.992188 297.375 184.15625 297.558594 184.144531 297.773438 C 184.140625 297.886719 183.671875 309.113281 194.886719 314.355469 C 195.007812 314.414062 195.089844 314.523438 195.109375 314.652344 C 195.128906 314.78125 195.082031 314.910156 194.988281 315 L 191.160156 318.519531 C 191.085938 318.589844 190.992188 318.621094 190.894531 318.621094 Z M 190.894531 318.621094 "/>
<path style=" stroke:none;fill-rule:nonzero;fill:rgb(18.03894%,6.269836%,25.878906%);fill-opacity:1;" d="M 157.742188 302.894531 C 157.679688 302.894531 157.617188 302.882812 157.558594 302.851562 C 157.367188 302.75 157.292969 302.515625 157.394531 302.324219 C 161.316406 294.8125 167.601562 297.308594 167.664062 297.335938 C 167.863281 297.417969 167.957031 297.644531 167.875 297.84375 C 167.792969 298.042969 167.570312 298.140625 167.367188 298.058594 C 167.136719 297.960938 161.667969 295.824219 158.085938 302.683594 C 158.019531 302.820312 157.882812 302.894531 157.742188 302.894531 Z M 157.742188 302.894531 "/>
<path style=" stroke:none;fill-rule:nonzero;fill:rgb(18.03894%,6.269836%,25.878906%);fill-opacity:1;" d="M 184.472656 294.257812 C 184.433594 294.257812 184.398438 294.253906 184.359375 294.242188 C 184.152344 294.179688 184.035156 293.960938 184.097656 293.757812 C 184.121094 293.679688 184.671875 291.875 186.484375 290.980469 C 187.855469 290.304688 189.546875 290.339844 191.519531 291.089844 C 191.71875 291.164062 191.820312 291.390625 191.746094 291.59375 C 191.667969 291.796875 191.4375 291.894531 191.238281 291.820312 C 189.488281 291.152344 188.007812 291.105469 186.839844 291.675781 C 185.335938 292.414062 184.851562 293.964844 184.847656 293.980469 C 184.796875 294.148438 184.640625 294.257812 184.472656 294.257812 Z M 184.472656 294.257812 "/>
<path style=" stroke:none;fill-rule:nonzero;fill:rgb(18.03894%,6.269836%,25.878906%);fill-opacity:1;" d="M 192.265625 372.449219 C 188.628906 380.351562 183.554688 393.472656 183.554688 393.472656 L 130.175781 377.503906 C 111.511719 383.609375 85.390625 391.835938 64.136719 410.9375 C 80.332031 427.453125 101.222656 439.757812 125.40625 445.472656 C 177.769531 457.851562 230.222656 435.820312 259.023438 394.050781 C 247.800781 380.800781 229.183594 371.609375 192.265625 372.449219 Z M 192.265625 372.449219 "/>
<path style=" stroke:none;fill-rule:nonzero;fill:rgb(91.369629%,36.079407%,92.158508%);fill-opacity:0.298;" d="M 111.296875 431.648438 C 106.339844 427.648438 102.199219 422.722656 98.460938 417.566406 C 93.460938 410.671875 89.035156 403.027344 87.160156 394.800781 C 79.246094 399.136719 71.40625 404.40625 64.136719 410.9375 C 80.335938 427.453125 101.226562 439.757812 125.40625 445.472656 C 138.296875 448.519531 151.191406 449.476562 163.734375 448.574219 C 151.847656 448.21875 140.023438 445.882812 128.953125 441.511719 C 122.660156 439.027344 116.5625 435.898438 111.296875 431.648438 Z M 111.296875 431.648438 "/>
<path style=" stroke:none;fill-rule:nonzero;fill:rgb(91.369629%,36.079407%,92.158508%);fill-opacity:1;" d="M 114.429688 442.351562 C 166.714844 438.273438 210.667969 426.972656 247.820312 408.046875 C 248.328125 407.496094 248.835938 406.945312 249.335938 406.382812 C 211.472656 426.054688 166.449219 437.6875 112.609375 441.707031 C 113.214844 441.921875 113.816406 442.148438 114.429688 442.351562 Z M 114.429688 442.351562 "/>
<path style=" stroke:none;fill-rule:nonzero;fill:rgb(100%,81.17981%,72.549438%);fill-opacity:1;" d="M 183.554688 393.472656 L 189.117188 364.179688 L 201.824219 368.519531 L 207.554688 385.496094 L 191.824219 382.179688 Z M 183.554688 393.472656 "/>
<path style=" stroke:none;fill-rule:nonzero;fill:rgb(91.369629%,36.079407%,92.158508%);fill-opacity:1;" d="M 185.519531 400.921875 C 179.0625 400.921875 164.199219 397.972656 162.234375 397.574219 C 162.019531 397.53125 161.886719 397.324219 161.925781 397.113281 C 161.96875 396.902344 162.171875 396.765625 162.386719 396.808594 C 168.675781 398.074219 185.496094 401.09375 187.777344 399.875 C 191.765625 397.726562 198.78125 383.703125 198.851562 383.5625 C 198.949219 383.367188 199.183594 383.289062 199.375 383.386719 C 199.566406 383.480469 199.648438 383.714844 199.550781 383.910156 C 199.257812 384.496094 192.351562 398.296875 188.148438 400.5625 C 187.675781 400.816406 186.75 400.921875 185.519531 400.921875 Z M 185.519531 400.921875 "/>
<path style=" stroke:none;fill-rule:nonzero;fill:rgb(18.03894%,6.269836%,25.878906%);fill-opacity:1;" d="M 183.554688 393.863281 C 183.472656 393.863281 183.394531 393.839844 183.324219 393.789062 C 183.148438 393.660156 183.113281 393.417969 183.238281 393.242188 L 201.511719 368.289062 C 201.636719 368.117188 201.882812 368.078125 202.058594 368.207031 C 202.230469 368.332031 202.269531 368.578125 202.140625 368.75 L 183.871094 393.707031 C 183.792969 393.808594 183.675781 393.863281 183.554688 393.863281 Z M 183.554688 393.863281 "/>
<path style=" stroke:none;fill-rule:nonzero;fill:rgb(100%,81.17981%,72.549438%);fill-opacity:1;" d="M 124.824219 362.566406 C 124.824219 362.566406 121.734375 377.335938 170.808594 379.671875 L 183.554688 393.472656 L 167.703125 390.589844 L 163.160156 406.855469 C 163.160156 406.855469 110.550781 399.863281 113.445312 383.28125 C 114.464844 377.460938 120.03125 368.839844 124.824219 362.566406 Z M 124.824219 362.566406 "/>
<path style=" stroke:none;fill-rule:nonzero;fill:rgb(75.689697%,30.979919%,26.669312%);fill-opacity:0.2;" d="M 137.535156 390.316406 C 131.484375 387.394531 126.152344 382.488281 123.902344 376.15625 C 122.492188 372.191406 122.492188 367.664062 123.933594 363.75 C 119.367188 369.890625 114.402344 377.816406 113.449219 383.28125 C 110.550781 399.863281 163.160156 406.855469 163.160156 406.855469 L 166.339844 395.464844 C 163.238281 395.40625 160.136719 395.257812 157.046875 394.980469 C 150.347656 394.382812 143.589844 393.242188 137.535156 390.316406 Z M 137.535156 390.316406 "/>
<path style=" stroke:none;fill-rule:nonzero;fill:rgb(18.03894%,6.269836%,25.878906%);fill-opacity:1;" d="M 163.160156 407.246094 C 163.125 407.246094 163.089844 407.238281 163.054688 407.230469 C 162.847656 407.171875 162.726562 406.957031 162.785156 406.746094 L 170.433594 379.5625 C 170.492188 379.355469 170.703125 379.234375 170.914062 379.292969 C 171.121094 379.351562 171.242188 379.570312 171.183594 379.777344 L 163.535156 406.960938 C 163.488281 407.132812 163.332031 407.246094 163.160156 407.246094 Z M 163.160156 407.246094 "/>
<path style=" stroke:none;fill-rule:nonzero;fill:rgb(91.369629%,36.079407%,92.158508%);fill-opacity:1;" d="M 170.21875 266.847656 C 170.164062 266.847656 170.109375 266.847656 170.050781 266.847656 C 169.835938 266.839844 169.664062 266.664062 169.671875 266.449219 C 169.675781 266.230469 169.882812 266.082031 170.070312 266.066406 C 171.917969 266.101562 173.707031 265.363281 174.890625 264.800781 C 175.734375 264.398438 176.8125 263.835938 177.695312 263.023438 C 178.832031 261.972656 179.695312 260.449219 180.195312 258.613281 C 180.671875 256.863281 180.78125 255.003906 180.851562 253.394531 C 180.859375 253.179688 181.042969 253 181.257812 253.023438 C 181.472656 253.03125 181.640625 253.214844 181.632812 253.429688 C 181.5625 255.078125 181.445312 256.988281 180.949219 258.816406 C 180.414062 260.796875 179.472656 262.449219 178.222656 263.597656 C 177.265625 264.480469 176.117188 265.082031 175.226562 265.503906 C 174.003906 266.085938 172.171875 266.847656 170.21875 266.847656 Z M 170.21875 266.847656 "/>
<path style=" stroke:none;fill-rule:nonzero;fill:rgb(91.369629%,36.079407%,92.158508%);fill-opacity:1;" d="M 125.957031 297.519531 C 124.050781 297.519531 122.140625 296.949219 120.582031 295.828125 C 120.40625 295.703125 120.367188 295.460938 120.492188 295.285156 C 120.621094 295.109375 120.863281 295.070312 121.039062 295.195312 C 123.574219 297.015625 127.128906 297.25 129.882812 295.777344 C 132.636719 294.304688 134.414062 291.21875 134.304688 288.101562 C 134.296875 287.882812 134.464844 287.703125 134.679688 287.695312 C 134.910156 287.691406 135.078125 287.859375 135.085938 288.074219 C 135.203125 291.484375 133.261719 294.855469 130.25 296.46875 C 128.933594 297.171875 127.445312 297.519531 125.957031 297.519531 Z M 125.957031 297.519531 "/>
<path style=" stroke:none;fill-rule:nonzero;fill:rgb(91.369629%,36.079407%,92.158508%);fill-opacity:1;" d="M 125.4375 272.269531 C 125.09375 272.269531 124.753906 272.25 124.421875 272.214844 C 121.398438 271.894531 118.773438 270.058594 117.726562 267.535156 C 117.644531 267.335938 117.738281 267.109375 117.9375 267.027344 C 118.136719 266.945312 118.367188 267.039062 118.449219 267.238281 C 119.386719 269.5 121.761719 271.148438 124.503906 271.4375 C 126.886719 271.691406 129.53125 270.960938 131.960938 269.382812 C 132.140625 269.265625 132.382812 269.316406 132.5 269.496094 C 132.621094 269.679688 132.566406 269.921875 132.386719 270.039062 C 130.144531 271.492188 127.710938 272.269531 125.4375 272.269531 Z M 125.4375 272.269531 "/>
<path style=" stroke:none;fill-rule:nonzero;fill:rgb(91.369629%,36.079407%,92.158508%);fill-opacity:0.298;" d="M 169.597656 233.996094 C 169.597656 233.996094 169.84375 234.074219 170.261719 234.242188 C 169.453125 234.839844 168.605469 235.378906 167.726562 235.851562 C 164.367188 237.652344 160.597656 238.570312 156.816406 239.046875 C 153.519531 239.457031 149.992188 239.5 147.082031 237.894531 C 146.855469 237.769531 146.632812 237.636719 146.414062 237.496094 C 152.527344 234.027344 160.621094 231.476562 169.597656 233.996094 Z M 103.554688 272.152344 C 98.582031 278.394531 98.699219 285.535156 99.8125 290.695312 C 100.835938 289.605469 101.855469 288.515625 102.878906 287.429688 C 103.84375 286.402344 104.832031 285.339844 105.375 284.039062 C 105.890625 282.796875 105.964844 281.417969 105.890625 280.078125 C 105.730469 277.300781 104.90625 274.578125 103.554688 272.152344 Z M 201.738281 262.714844 C 200.832031 261.34375 199.867188 260.136719 198.878906 259.0625 C 197.730469 262.183594 197.71875 265.734375 199.171875 268.71875 C 200.308594 271.0625 202.371094 272.941406 204.769531 273.921875 C 204.757812 267.589844 201.738281 262.714844 201.738281 262.714844 Z M 201.738281 262.714844 "/>
<path style=" stroke:none;fill-rule:nonzero;fill:rgb(18.03894%,6.269836%,25.878906%);fill-opacity:1;" d="M 201.730469 288.742188 C 201.65625 288.742188 201.582031 288.71875 201.515625 288.675781 C 201.335938 288.558594 201.285156 288.316406 201.402344 288.136719 C 204.257812 283.800781 207.066406 279.136719 207.328125 273.929688 C 207.527344 269.964844 206.179688 265.839844 203.535156 262.324219 C 201.214844 259.230469 197.84375 256.566406 193.789062 254.621094 C 190.566406 253.070312 187.136719 252.046875 183.597656 251.566406 C 183.382812 251.539062 183.230469 251.34375 183.261719 251.128906 C 183.289062 250.914062 183.484375 250.765625 183.699219 250.792969 C 187.324219 251.28125 190.832031 252.332031 194.125 253.914062 C 198.292969 255.917969 201.761719 258.664062 204.160156 261.855469 C 206.917969 265.515625 208.316406 269.820312 208.109375 273.96875 C 207.835938 279.371094 204.96875 284.140625 202.054688 288.566406 C 201.980469 288.679688 201.855469 288.742188 201.730469 288.742188 Z M 201.730469 288.742188 "/>
<path style=" stroke:none;fill-rule:nonzero;fill:rgb(18.03894%,6.269836%,25.878906%);fill-opacity:1;" d="M 119.492188 255.5625 C 119.472656 255.5625 119.449219 255.558594 119.425781 255.554688 C 119.210938 255.519531 119.070312 255.316406 119.109375 255.101562 C 119.9375 250.503906 124.003906 247.542969 127.535156 246.300781 C 131.535156 244.898438 135.980469 244.957031 139.898438 245.011719 C 140.113281 245.015625 140.285156 245.191406 140.28125 245.410156 C 140.28125 245.621094 140.105469 245.792969 139.890625 245.792969 C 139.890625 245.792969 139.886719 245.792969 139.886719 245.792969 C 135.84375 245.738281 131.664062 245.679688 127.792969 247.039062 C 124.472656 248.207031 120.648438 250.972656 119.878906 255.242188 C 119.84375 255.429688 119.679688 255.5625 119.492188 255.5625 Z M 119.492188 255.5625 "/>
<path style=" stroke:none;fill-rule:nonzero;fill:rgb(91.369629%,36.079407%,92.158508%);fill-opacity:0.298;" d="M 339.042969 87.996094 C 339.769531 87.101562 340.441406 86.15625 341.082031 85.191406 C 331.800781 86.839844 320.898438 91.8125 312.195312 104.558594 C 312.171875 104.585938 312.148438 104.609375 312.125 104.636719 C 311.515625 105.328125 310.890625 106.136719 310.257812 107.023438 C 315.109375 105.933594 319.804688 103.390625 324.039062 100.664062 C 329.566406 97.105469 334.898438 93.097656 339.042969 87.996094 Z M 339.042969 87.996094 "/>
<path style=" stroke:none;fill-rule:nonzero;fill:rgb(91.369629%,36.079407%,92.158508%);fill-opacity:0.298;" d="M 418.40625 193.414062 C 416.464844 196.933594 415.210938 200.921875 415.433594 204.9375 C 415.492188 206 415.652344 207.039062 415.886719 208.070312 C 423.941406 204.503906 431.421875 197.488281 433.925781 183.894531 C 434.1875 182.46875 434.375 181 434.503906 179.5 C 427.730469 182.070312 421.90625 187.070312 418.40625 193.414062 Z M 418.40625 193.414062 "/>
<path style=" stroke:none;fill-rule:nonzero;fill:rgb(18.03894%,6.269836%,25.878906%);fill-opacity:1;" d="M 360.847656 173.789062 C 360.769531 173.789062 360.6875 173.761719 360.617188 173.710938 C 355.40625 169.84375 352.625 172.539062 352.507812 172.65625 C 352.359375 172.808594 352.109375 172.8125 351.957031 172.660156 C 351.800781 172.511719 351.796875 172.265625 351.949219 172.109375 C 351.980469 172.074219 355.292969 168.789062 361.082031 173.082031 C 361.253906 173.210938 361.292969 173.457031 361.164062 173.628906 C 361.085938 173.734375 360.96875 173.789062 360.847656 173.789062 Z M 360.847656 173.789062 "/>
<path style=" stroke:none;fill-rule:nonzero;fill:rgb(18.03894%,6.269836%,25.878906%);fill-opacity:1;" d="M 322.566406 172.183594 C 322.484375 172.183594 322.40625 172.15625 322.335938 172.105469 C 322.160156 171.980469 322.121094 171.734375 322.25 171.5625 C 322.300781 171.492188 323.511719 169.863281 325.53125 169.683594 C 326.945312 169.558594 328.367188 170.171875 329.765625 171.507812 C 329.921875 171.660156 329.925781 171.90625 329.777344 172.0625 C 329.628906 172.21875 329.382812 172.222656 329.226562 172.074219 C 327.996094 170.898438 326.785156 170.355469 325.597656 170.460938 C 323.929688 170.609375 322.890625 172.007812 322.882812 172.023438 C 322.804688 172.125 322.6875 172.183594 322.566406 172.183594 Z M 322.566406 172.183594 "/>
</g>
</svg>
