<?xml version="1.0" encoding="UTF-8"?>
<svg xmlns="http://www.w3.org/2000/svg" xmlns:xlink="http://www.w3.org/1999/xlink" width="525pt" height="487.499991pt" viewBox="0 0 525 487.499991" version="1.2">
<defs>
<clipPath id="clip1">
  <path d="M 124.597656 205 L 427.289062 205 L 427.289062 438 L 124.597656 438 Z M 124.597656 205 "/>
</clipPath>
<clipPath id="clip2">
  <path d="M 140 462 L 411 462 L 411 487 L 140 487 Z M 140 462 "/>
</clipPath>
<clipPath id="clip3">
  <path d="M 188 22 L 361.554688 22 L 361.554688 188 L 188 188 Z M 188 22 "/>
</clipPath>
<clipPath id="clip4">
  <path d="M 283.9375 389.75 L 265.503906 389.75 C 223.09375 389.75 188.394531 355.066406 188.394531 312.675781 L 188.394531 77.121094 C 188.394531 34.730469 223.09375 0.046875 265.503906 0.046875 L 283.9375 0.046875 C 326.347656 0.046875 361.046875 34.730469 361.046875 77.121094 L 361.046875 312.675781 C 361.046875 355.066406 326.347656 389.75 283.9375 389.75 Z M 283.9375 389.75 "/>
</clipPath>
<clipPath id="clip5">
  <path d="M 195.316406 0 L 361.554688 0 L 361.554688 138 L 195.316406 138 Z M 195.316406 0 "/>
</clipPath>
<clipPath id="clip6">
  <path d="M 283.9375 389.75 L 265.503906 389.75 C 223.09375 389.75 188.394531 355.066406 188.394531 312.675781 L 188.394531 77.121094 C 188.394531 34.730469 223.09375 0.046875 265.503906 0.046875 L 283.9375 0.046875 C 326.347656 0.046875 361.046875 34.730469 361.046875 77.121094 L 361.046875 312.675781 C 361.046875 355.066406 326.347656 389.75 283.9375 389.75 Z M 283.9375 389.75 "/>
</clipPath>
<clipPath id="clip7">
  <path d="M 222.519531 0 L 361.554688 0 L 361.554688 111 L 222.519531 111 Z M 222.519531 0 "/>
</clipPath>
<clipPath id="clip8">
  <path d="M 283.9375 389.75 L 265.503906 389.75 C 223.09375 389.75 188.394531 355.066406 188.394531 312.675781 L 188.394531 77.121094 C 188.394531 34.730469 223.09375 0.046875 265.503906 0.046875 L 283.9375 0.046875 C 326.347656 0.046875 361.046875 34.730469 361.046875 77.121094 L 361.046875 312.675781 C 361.046875 355.066406 326.347656 389.75 283.9375 389.75 Z M 283.9375 389.75 "/>
</clipPath>
<clipPath id="clip9">
  <path d="M 188 67 L 361.554688 67 L 361.554688 224.769531 L 188 224.769531 Z M 188 67 "/>
</clipPath>
<clipPath id="clip10">
  <path d="M 283.9375 389.75 L 265.503906 389.75 C 223.09375 389.75 188.394531 355.066406 188.394531 312.675781 L 188.394531 77.121094 C 188.394531 34.730469 223.09375 0.046875 265.503906 0.046875 L 283.9375 0.046875 C 326.347656 0.046875 361.046875 34.730469 361.046875 77.121094 L 361.046875 312.675781 C 361.046875 355.066406 326.347656 389.75 283.9375 389.75 Z M 283.9375 389.75 "/>
</clipPath>
<clipPath id="clip11">
  <path d="M 188 71 L 301 71 L 301 215.707031 L 188 215.707031 Z M 188 71 "/>
</clipPath>
<clipPath id="clip12">
  <path d="M 283.9375 389.75 L 265.503906 389.75 C 223.09375 389.75 188.394531 355.066406 188.394531 312.675781 L 188.394531 77.121094 C 188.394531 34.730469 223.09375 0.046875 265.503906 0.046875 L 283.9375 0.046875 C 326.347656 0.046875 361.046875 34.730469 361.046875 77.121094 L 361.046875 312.675781 C 361.046875 355.066406 326.347656 389.75 283.9375 389.75 Z M 283.9375 389.75 "/>
</clipPath>
<clipPath id="clip13">
  <path d="M 188 0 L 317 0 L 317 132.625 L 188 132.625 Z M 188 0 "/>
</clipPath>
<clipPath id="clip14">
  <path d="M 283.9375 389.75 L 265.503906 389.75 C 223.09375 389.75 188.394531 355.066406 188.394531 312.675781 L 188.394531 77.121094 C 188.394531 34.730469 223.09375 0.046875 265.503906 0.046875 L 283.9375 0.046875 C 326.347656 0.046875 361.046875 34.730469 361.046875 77.121094 L 361.046875 312.675781 C 361.046875 355.066406 326.347656 389.75 283.9375 389.75 Z M 283.9375 389.75 "/>
</clipPath>
<clipPath id="clip15">
  <path d="M 188 0 L 356 0 L 356 171 L 188 171 Z M 188 0 "/>
</clipPath>
<clipPath id="clip16">
  <path d="M 283.9375 389.75 L 265.503906 389.75 C 223.09375 389.75 188.394531 355.066406 188.394531 312.675781 L 188.394531 77.121094 C 188.394531 34.730469 223.09375 0.046875 265.503906 0.046875 L 283.9375 0.046875 C 326.347656 0.046875 361.046875 34.730469 361.046875 77.121094 L 361.046875 312.675781 C 361.046875 355.066406 326.347656 389.75 283.9375 389.75 Z M 283.9375 389.75 "/>
</clipPath>
<clipPath id="clip17">
  <path d="M 201.363281 39 L 361.554688 39 L 361.554688 202.109375 L 201.363281 202.109375 Z M 201.363281 39 "/>
</clipPath>
<clipPath id="clip18">
  <path d="M 283.9375 389.75 L 265.503906 389.75 C 223.09375 389.75 188.394531 355.066406 188.394531 312.675781 L 188.394531 77.121094 C 188.394531 34.730469 223.09375 0.046875 265.503906 0.046875 L 283.9375 0.046875 C 326.347656 0.046875 361.046875 34.730469 361.046875 77.121094 L 361.046875 312.675781 C 361.046875 355.066406 326.347656 389.75 283.9375 389.75 Z M 283.9375 389.75 "/>
</clipPath>
<clipPath id="clip19">
  <path d="M 260.300781 71 L 361.554688 71 L 361.554688 224.769531 L 260.300781 224.769531 Z M 260.300781 71 "/>
</clipPath>
<clipPath id="clip20">
  <path d="M 283.9375 389.75 L 265.503906 389.75 C 223.09375 389.75 188.394531 355.066406 188.394531 312.675781 L 188.394531 77.121094 C 188.394531 34.730469 223.09375 0.046875 265.503906 0.046875 L 283.9375 0.046875 C 326.347656 0.046875 361.046875 34.730469 361.046875 77.121094 L 361.046875 312.675781 C 361.046875 355.066406 326.347656 389.75 283.9375 389.75 Z M 283.9375 389.75 "/>
</clipPath>
</defs>
<g id="surface1">
<g clip-path="url(#clip1)" clip-rule="nonzero">
<path style=" stroke:none;fill-rule:nonzero;fill:rgb(97.24884%,60.389709%,18.03894%);fill-opacity:1;" d="M 137.414062 217.117188 C 142.628906 276.429688 157.636719 327.273438 180.953125 364.476562 C 205.878906 404.253906 238.894531 425.277344 276.433594 425.277344 C 349.546875 425.277344 403.34375 343.808594 414.453125 217.117188 Z M 276.433594 437.359375 C 234.515625 437.359375 197.957031 414.378906 170.707031 370.890625 C 145.511719 330.683594 129.644531 275.574219 124.828125 211.527344 C 124.695312 209.851562 125.273438 208.195312 126.421875 206.96875 C 127.566406 205.734375 129.171875 205.03125 130.855469 205.03125 L 421.011719 205.03125 C 422.695312 205.03125 424.300781 205.734375 425.441406 206.96875 C 426.585938 208.195312 427.164062 209.851562 427.039062 211.527344 C 422.210938 275.710938 406.527344 330.808594 381.671875 370.875 C 354.695312 414.371094 318.300781 437.359375 276.433594 437.359375 "/>
</g>
<path style=" stroke:none;fill-rule:nonzero;fill:rgb(91.369629%,51.368713%,54.899597%);fill-opacity:1;" d="M 283.9375 389.75 L 265.503906 389.75 C 223.09375 389.75 188.394531 355.066406 188.394531 312.675781 L 188.394531 77.121094 C 188.394531 34.730469 223.09375 0.046875 265.503906 0.046875 L 283.9375 0.046875 C 326.347656 0.046875 361.046875 34.730469 361.046875 77.121094 L 361.046875 312.675781 C 361.046875 355.066406 326.347656 389.75 283.9375 389.75 "/>
<path style=" stroke:none;fill-rule:nonzero;fill:rgb(21.958923%,16.468811%,25.099182%);fill-opacity:1;" d="M 300.726562 454.773438 L 250.839844 454.773438 L 250.839844 416.425781 C 250.839844 411.71875 254.691406 407.863281 259.402344 407.863281 L 292.160156 407.863281 C 296.871094 407.863281 300.726562 411.71875 300.726562 416.425781 L 300.726562 454.773438 "/>
<path style=" stroke:none;fill-rule:nonzero;fill:rgb(21.958923%,16.468811%,25.099182%);fill-opacity:1;" d="M 410.9375 460.816406 L 140.925781 460.816406 L 140.925781 454.773438 L 410.9375 454.773438 L 410.9375 460.816406 "/>
<g clip-path="url(#clip2)" clip-rule="nonzero">
<path style=" stroke:none;fill-rule:nonzero;fill:rgb(21.958923%,16.468811%,25.099182%);fill-opacity:1;" d="M 410.9375 487.003906 L 140.925781 487.003906 L 140.925781 462.835938 L 410.9375 462.835938 L 410.9375 487.003906 "/>
</g>
<g clip-path="url(#clip3)" clip-rule="nonzero">
<g clip-path="url(#clip4)" clip-rule="nonzero">
<path style=" stroke:none;fill-rule:nonzero;fill:rgb(75.689697%,30.979919%,26.669312%);fill-opacity:1;" d="M 166.113281 22.253906 C 181.894531 27.585938 393.8125 187.40625 393.8125 187.40625 "/>
</g>
</g>
<g clip-path="url(#clip5)" clip-rule="nonzero">
<g clip-path="url(#clip6)" clip-rule="nonzero">
<path style=" stroke:none;fill-rule:nonzero;fill:rgb(97.24884%,60.389709%,18.03894%);fill-opacity:1;" d="M 195.328125 -5.996094 C 195.328125 -5.996094 207.832031 2.835938 226.59375 16.089844 C 235.9375 22.761719 246.835938 30.550781 258.511719 38.894531 C 270.164062 47.28125 282.585938 56.226562 295.011719 65.171875 C 307.398438 74.167969 319.785156 83.171875 331.394531 91.605469 C 342.972656 100.089844 353.78125 108.003906 363.046875 114.78125 C 381.503906 128.449219 393.8125 137.558594 393.8125 137.558594 C 393.8125 137.558594 381.300781 128.726562 362.546875 115.472656 C 353.207031 108.800781 342.304688 101.011719 330.628906 92.667969 C 318.972656 84.28125 306.554688 75.335938 294.128906 66.390625 C 281.742188 57.394531 269.355469 48.394531 257.746094 39.957031 C 246.167969 31.476562 235.359375 23.558594 226.097656 16.78125 C 207.636719 3.113281 195.328125 -5.996094 195.328125 -5.996094 "/>
</g>
</g>
<g clip-path="url(#clip7)" clip-rule="nonzero">
<g clip-path="url(#clip8)" clip-rule="nonzero">
<path style=" stroke:none;fill-rule:nonzero;fill:rgb(97.24884%,60.389709%,18.03894%);fill-opacity:1;" d="M 222.53125 -32.691406 C 222.53125 -32.691406 235.042969 -23.855469 253.796875 -10.597656 C 263.140625 -3.925781 274.039062 3.859375 285.714844 12.203125 C 297.367188 20.585938 309.789062 29.53125 322.214844 38.476562 C 334.601562 47.480469 346.984375 56.480469 358.597656 64.917969 C 370.175781 73.394531 380.984375 81.308594 390.25 88.09375 C 408.703125 101.761719 421.011719 110.871094 421.011719 110.871094 C 421.011719 110.871094 408.503906 102.03125 389.75 88.777344 C 380.410156 82.105469 369.507812 74.316406 357.832031 65.980469 C 346.175781 57.589844 333.757812 48.644531 321.328125 39.699219 C 308.945312 30.699219 296.558594 21.699219 284.949219 13.261719 C 273.371094 4.785156 262.5625 -3.128906 253.300781 -9.914062 C 234.839844 -23.578125 222.53125 -32.691406 222.53125 -32.691406 "/>
</g>
</g>
<g clip-path="url(#clip9)" clip-rule="nonzero">
<g clip-path="url(#clip10)" clip-rule="nonzero">
<path style=" stroke:none;fill-rule:nonzero;fill:rgb(97.24884%,60.389709%,18.03894%);fill-opacity:1;" d="M 161.078125 67.519531 C 161.078125 67.519531 174.746094 77.171875 195.246094 91.648438 C 205.464844 98.941406 217.382812 107.441406 230.160156 116.554688 C 242.898438 125.703125 256.488281 135.46875 270.078125 145.230469 C 283.625 155.046875 297.179688 164.867188 309.878906 174.070312 C 322.550781 183.316406 334.382812 191.945312 344.519531 199.34375 C 364.726562 214.238281 378.191406 224.167969 378.191406 224.167969 C 378.191406 224.167969 364.523438 214.515625 344.023438 200.035156 C 333.804688 192.746094 321.886719 184.246094 309.117188 175.132812 C 296.371094 165.976562 282.78125 156.214844 269.191406 146.449219 C 255.644531 136.632812 242.09375 126.8125 229.390625 117.613281 C 216.71875 108.363281 204.894531 99.734375 194.75 92.335938 C 174.550781 77.445312 161.078125 67.519531 161.078125 67.519531 "/>
</g>
</g>
<g clip-path="url(#clip11)" clip-rule="nonzero">
<g clip-path="url(#clip12)" clip-rule="nonzero">
<path style=" stroke:none;fill-rule:nonzero;fill:rgb(97.24884%,60.389709%,18.03894%);fill-opacity:1;" d="M 102.253906 71.828125 C 102.253906 71.828125 114.753906 80.660156 133.511719 93.914062 C 142.855469 100.585938 153.753906 108.375 165.433594 116.71875 C 177.082031 125.101562 189.507812 134.046875 201.929688 142.992188 C 214.316406 151.992188 226.699219 160.988281 238.3125 169.429688 C 249.894531 177.90625 260.703125 185.824219 269.964844 192.605469 C 288.425781 206.269531 300.726562 215.382812 300.726562 215.382812 C 300.726562 215.382812 288.222656 206.546875 269.464844 193.296875 C 260.125 186.621094 249.222656 178.832031 237.542969 170.488281 C 225.898438 162.105469 213.46875 153.160156 201.042969 144.214844 C 188.664062 135.214844 176.273438 126.210938 164.667969 117.78125 C 153.085938 109.296875 142.277344 101.382812 133.015625 94.597656 C 114.554688 80.929688 102.253906 71.828125 102.253906 71.828125 "/>
</g>
</g>
<g clip-path="url(#clip13)" clip-rule="nonzero">
<g clip-path="url(#clip14)" clip-rule="nonzero">
<path style=" stroke:none;fill-rule:nonzero;fill:rgb(75.689697%,30.979919%,26.669312%);fill-opacity:1;" d="M 316.765625 -17.519531 C 311.195312 -16.515625 145.695312 132.527344 145.695312 132.527344 "/>
</g>
</g>
<g clip-path="url(#clip15)" clip-rule="nonzero">
<g clip-path="url(#clip16)" clip-rule="nonzero">
<path style=" stroke:none;fill-rule:nonzero;fill:rgb(75.689697%,30.979919%,26.669312%);fill-opacity:1;" d="M 355.523438 0.046875 L 166.113281 170.789062 "/>
</g>
</g>
<g clip-path="url(#clip17)" clip-rule="nonzero">
<g clip-path="url(#clip18)" clip-rule="nonzero">
<path style=" stroke:none;fill-rule:nonzero;fill:rgb(75.689697%,30.979919%,26.669312%);fill-opacity:1;" d="M 393.8125 39.089844 L 201.488281 202.011719 "/>
</g>
</g>
<g clip-path="url(#clip19)" clip-rule="nonzero">
<g clip-path="url(#clip20)" clip-rule="nonzero">
<path style=" stroke:none;fill-rule:nonzero;fill:rgb(75.689697%,30.979919%,26.669312%);fill-opacity:1;" d="M 427.058594 71.828125 C 423.027344 76.132812 260.820312 224.167969 260.820312 224.167969 "/>
</g>
</g>
<path style=" stroke:none;fill-rule:nonzero;fill:rgb(75.689697%,30.979919%,26.669312%);fill-opacity:1;" d="M 387.761719 245.859375 L 163.828125 245.859375 C 153.851562 245.859375 145.695312 237.699219 145.695312 227.730469 L 145.695312 197.980469 C 145.695312 188.015625 153.851562 179.855469 163.828125 179.855469 L 387.761719 179.855469 C 397.738281 179.855469 405.894531 188.015625 405.894531 197.980469 L 405.894531 227.730469 C 405.894531 237.699219 397.738281 245.859375 387.761719 245.859375 "/>
</g>
</svg>
