<?xml version="1.0" encoding="UTF-8"?>
<svg xmlns="http://www.w3.org/2000/svg" xmlns:xlink="http://www.w3.org/1999/xlink" width="525pt" height="487.499991pt" viewBox="0 0 525 487.499991" version="1.2">
<defs>
<clipPath id="clip1">
  <path d="M 114.066406 0 L 215.964844 0 L 215.964844 68.140625 L 114.066406 68.140625 Z M 114.066406 0 "/>
</clipPath>
<clipPath id="clip2">
  <path d="M 73.671875 4 L 215 4 L 215 487 L 73.671875 487 Z M 73.671875 4 "/>
</clipPath>
</defs>
<g id="surface1">
<path style=" stroke:none;fill-rule:nonzero;fill:rgb(5.879211%,5.488586%,4.708862%);fill-opacity:1;" d="M 100.203125 467.625 C 93.84375 464.660156 87.363281 461.242188 82.476562 456.085938 C 80.277344 453.765625 78.375 450.972656 77.613281 447.820312 C 76.671875 443.945312 77.417969 440.160156 79.011719 436.558594 C 82.347656 429.027344 87.804688 422.160156 93.867188 416.644531 C 99.789062 411.265625 106.609375 407.332031 113.667969 403.664062 C 120.636719 400.039062 127.734375 396.546875 134.066406 391.839844 C 140.246094 387.246094 145.316406 381.390625 148.601562 374.398438 C 155.015625 360.738281 154.371094 344.546875 149.527344 330.519531 C 144.015625 314.566406 132.8125 301.132812 121.078125 289.332031 C 109.003906 277.1875 95.714844 266.253906 84.484375 253.28125 C 78.714844 246.617188 73.625 239.441406 69.621094 231.570312 C 65.503906 223.472656 62.457031 214.867188 60.191406 206.070312 C 55.773438 188.917969 54.269531 170.902344 56.863281 153.328125 C 61.382812 122.628906 80.011719 93.683594 109.457031 81.847656 C 112.8125 80.492188 116.28125 79.460938 119.808594 78.65625 C 123.03125 77.917969 122.546875 73.164062 119.082031 73.960938 C 88.285156 81.003906 64.519531 106.800781 55.390625 136.46875 C 50.066406 153.804688 49.128906 172.242188 51.546875 190.167969 C 53.96875 208.082031 59.40625 226.269531 69.042969 241.65625 C 87.839844 271.6875 121.199219 289.320312 138.78125 320.238281 C 146.539062 333.886719 150.339844 350.125 146.386719 365.617188 C 144.523438 372.941406 140.667969 379.671875 135.132812 384.816406 C 129.355469 390.183594 122.34375 393.890625 115.394531 397.488281 C 108.207031 401.210938 100.953125 404.890625 94.539062 409.886719 C 87.757812 415.175781 81.878906 421.742188 77.417969 429.105469 C 73.191406 436.074219 70.101562 443.792969 73.207031 451.835938 C 75.777344 458.476562 81.800781 463.292969 87.679688 466.914062 C 90.6875 468.769531 93.84375 470.375 97.042969 471.867188 C 99.71875 473.113281 103.222656 469.03125 100.203125 467.625 "/>
<path style=" stroke:none;fill-rule:nonzero;fill:rgb(32.939148%,77.648926%,76.858521%);fill-opacity:1;" d="M 119.144531 466.058594 L 113.792969 463.46875 L 116.792969 55.851562 L 127.339844 58.441406 L 119.144531 466.058594 "/>
<g clip-path="url(#clip1)" clip-rule="nonzero">
<path style=" stroke:none;fill-rule:nonzero;fill:rgb(75.689697%,30.979919%,26.669312%);fill-opacity:1;" d="M 212.90625 29.332031 C 211.433594 31.085938 209.472656 32.34375 207.722656 33.8125 C 206.210938 35.082031 204.84375 36.515625 203.277344 37.710938 C 201.246094 39.261719 198.929688 40.371094 196.640625 41.5 C 178.054688 50.628906 159.957031 61.257812 139.960938 66.621094 C 133.730469 68.292969 126.589844 69.289062 121.25 65.675781 C 116.332031 62.347656 114.378906 55.933594 114.398438 49.992188 C 114.421875 42.285156 117.242188 34.617188 122.214844 28.734375 L 121.265625 29.476562 C 123.980469 26.40625 127.804688 24.59375 131.546875 22.921875 C 149.027344 15.121094 171.441406 5.671875 189.941406 0.765625 C 196.632812 -1.011719 199.691406 0.511719 205.96875 3.445312 C 211.535156 6.042969 215.183594 11.941406 215.847656 18.050781 C 216.28125 22.023438 215.480469 26.28125 212.90625 29.332031 "/>
</g>
<g clip-path="url(#clip2)" clip-rule="nonzero">
<path style=" stroke:none;fill-rule:nonzero;fill:rgb(97.24884%,60.389709%,18.03894%);fill-opacity:1;" d="M 141.28125 66.246094 C 140.839844 66.367188 140.402344 66.503906 139.960938 66.621094 C 133.730469 68.292969 126.589844 69.289062 121.25 65.675781 C 116.332031 62.347656 114.378906 55.933594 114.398438 49.992188 C 114.402344 48.808594 114.496094 47.625 114.632812 46.453125 C 114.691406 46.5 114.753906 46.539062 114.828125 46.578125 C 115.539062 46.941406 116.484375 46.746094 117.140625 46.371094 C 120.097656 44.652344 123.089844 42.992188 126.117188 41.402344 C 127.632812 40.609375 129.152344 39.828125 130.683594 39.066406 C 131.445312 38.683594 132.210938 38.308594 132.980469 37.933594 C 133.3125 37.773438 133.640625 37.613281 133.972656 37.457031 C 134.175781 37.355469 134.382812 37.257812 134.589844 37.160156 C 135.15625 37.203125 135.773438 37.066406 136.167969 36.769531 C 136.75 36.332031 136.664062 35.789062 136.046875 35.457031 C 134.3125 34.511719 132.222656 35.972656 130.691406 36.722656 C 128.878906 37.605469 127.082031 38.511719 125.292969 39.441406 C 121.742188 41.285156 118.238281 43.222656 114.773438 45.226562 C 114.78125 45.214844 114.78125 45.199219 114.78125 45.183594 L 109.128906 40.691406 L 106.394531 87.398438 L 147 70.792969 Z M 130.0625 60.898438 C 128.78125 61.46875 127.503906 62.039062 126.21875 62.609375 C 125.578125 62.898438 124.941406 63.183594 124.300781 63.46875 C 123.929688 63.632812 123.097656 64.074219 122.855469 64.082031 C 122.464844 64.097656 121.214844 64.167969 121.222656 64.777344 C 121.238281 65.367188 122.535156 65.421875 122.878906 65.410156 C 124.476562 65.351562 125.800781 64.734375 127.230469 64.097656 C 128.660156 63.460938 130.089844 62.828125 131.515625 62.1875 C 134.425781 60.890625 137.332031 59.59375 140.238281 58.296875 C 140.820312 58.039062 140.789062 57.601562 140.222656 57.363281 C 139.5625 57.078125 138.550781 57.113281 137.898438 57.402344 C 135.289062 58.566406 132.675781 59.730469 130.0625 60.898438 Z M 120.195312 54.632812 C 118.460938 55.644531 120.683594 57.96875 122.226562 57.070312 C 127.097656 54.226562 132.183594 51.777344 137.441406 49.746094 C 139.390625 48.996094 137.8125 46.335938 136.109375 46.992188 C 130.613281 49.109375 125.28125 51.664062 120.195312 54.632812 Z M 212.296875 20.410156 C 205.625 23.03125 198.957031 25.65625 192.28125 28.277344 C 190.34375 29.042969 191.378906 31.785156 193.324219 31.019531 C 200 28.394531 206.667969 25.769531 213.339844 23.144531 C 215.277344 22.382812 214.242188 19.644531 212.296875 20.410156 Z M 193.390625 20.78125 C 199.257812 18.269531 205.289062 16.15625 211.429688 14.414062 C 212.902344 14 211.320312 11.152344 210.054688 11.507812 C 203.730469 13.296875 197.542969 15.503906 191.503906 18.09375 C 190.8125 18.386719 191.335938 19.640625 191.609375 20.027344 C 192.019531 20.613281 192.683594 21.085938 193.390625 20.78125 Z M 207.558594 4.761719 C 207.195312 4.605469 206.402344 4.109375 205.988281 4.257812 C 199.210938 6.667969 192.355469 8.867188 185.441406 10.851562 C 185.511719 10.832031 186.703125 11.582031 186.878906 11.660156 C 187.265625 11.828125 188.011719 12.292969 188.449219 12.164062 C 195.367188 10.179688 202.21875 7.980469 209 5.574219 C 208.953125 5.585938 207.71875 4.832031 207.558594 4.761719 Z M 179.089844 29.445312 C 177.574219 24.457031 175.855469 19.53125 173.972656 14.667969 C 173.480469 13.40625 170.34375 14.21875 170.933594 15.742188 C 172.46875 19.695312 173.878906 23.699219 175.160156 27.742188 C 175.769531 29.664062 176.347656 31.597656 176.898438 33.535156 C 177.195312 34.578125 177.480469 35.625 177.761719 36.675781 C 177.878906 37.125 178 37.574219 178.117188 38.023438 C 178.167969 38.238281 178.328125 38.636719 178.433594 39.011719 C 178.269531 39.203125 178.152344 39.433594 178.125 39.703125 C 178.070312 40.191406 178.296875 40.449219 178.703125 40.683594 C 179.535156 41.148438 180.878906 40.976562 181.5 40.210938 C 182.195312 39.351562 181.484375 37.980469 181.242188 37.054688 C 180.574219 34.503906 179.859375 31.964844 179.089844 29.445312 Z M 163.453125 19.609375 C 163.046875 17.886719 160.199219 17.695312 160.6875 19.785156 C 162.441406 27.253906 164.910156 34.523438 168.027344 41.53125 C 168.808594 43.289062 171.351562 42.542969 170.484375 40.589844 C 167.480469 33.832031 165.144531 26.804688 163.453125 19.609375 Z M 153.691406 23.292969 C 153.042969 21.574219 150.078125 22.902344 150.664062 24.460938 C 153.535156 32.082031 156.644531 39.609375 159.980469 47.039062 C 160.675781 48.582031 163.429688 46.804688 162.71875 45.226562 C 159.484375 38.007812 156.476562 30.695312 153.691406 23.292969 Z M 152.167969 52.332031 C 152.273438 52.335938 153.917969 52.261719 153.820312 52.078125 C 149.648438 44.417969 148.007812 35.746094 144.660156 27.742188 C 144.34375 26.988281 141.363281 27.566406 141.375 27.605469 C 144.726562 35.609375 146.367188 44.28125 150.539062 51.945312 C 150.757812 52.351562 151.773438 52.316406 152.167969 52.332031 Z M 115.175781 459.332031 L 157.960938 487.011719 L 73.925781 487.011719 Z M 115.175781 459.332031 "/>
</g>
</g>
</svg>
